<svg width="117" height="34" viewBox="0 0 117 34" fill="none" xmlns="http://www.w3.org/2000/svg">
<path d="M79.8988 25.7501L75.0264 7.93111H77.219L80.9429 22.4438H81.1169L84.9104 7.93111H87.3466L91.1401 22.4438H91.3141L95.038 7.93111H97.2305L92.3582 25.7501H90.1308L86.1981 11.5506H86.0589L82.1262 25.7501H79.8988ZM98.7656 25.7501V12.3858H100.819V25.7501H98.7656ZM99.8097 10.1585C99.4094 10.1585 99.0643 10.0222 98.7743 9.74955C98.4901 9.47693 98.3479 9.1492 98.3479 8.76637C98.3479 8.38354 98.4901 8.05582 98.7743 7.7832C99.0643 7.51057 99.4094 7.37426 99.8097 7.37426C100.21 7.37426 100.552 7.51057 100.836 7.7832C101.126 8.05582 101.271 8.38354 101.271 8.76637C101.271 9.1492 101.126 9.47693 100.836 9.74955C100.552 10.0222 100.21 10.1585 99.8097 10.1585ZM109.656 12.3858V14.126H102.452V12.3858H109.656ZM104.61 25.7501V10.5413C104.61 9.77565 104.789 9.1376 105.149 8.62716C105.509 8.11672 105.976 7.73389 106.55 7.47867C107.124 7.22345 107.73 7.09584 108.368 7.09584C108.873 7.09584 109.285 7.13645 109.604 7.21765C109.923 7.29886 110.161 7.37426 110.317 7.44387L109.726 9.2188C109.621 9.184 109.476 9.1405 109.291 9.0883C109.111 9.03609 108.873 9.00999 108.577 9.00999C107.898 9.00999 107.408 9.1811 107.107 9.52333C106.811 9.86555 106.663 10.3673 106.663 11.0285V25.7501H104.61ZM111.659 25.7501V12.3858H113.712V25.7501H111.659ZM112.703 10.1585C112.303 10.1585 111.957 10.0222 111.667 9.74955C111.383 9.47693 111.241 9.1492 111.241 8.76637C111.241 8.38354 111.383 8.05582 111.667 7.7832C111.957 7.51057 112.303 7.37426 112.703 7.37426C113.103 7.37426 113.445 7.51057 113.729 7.7832C114.019 8.05582 114.165 8.38354 114.165 8.76637C114.165 9.1492 114.019 9.47693 113.729 9.74955C113.445 10.0222 113.103 10.1585 112.703 10.1585Z" fill="black"/>
<path d="M3.5576 13.3159C8.08593 8.97134 14.2287 6.30029 21.0015 6.30029C27.7743 6.30029 33.9171 8.97134 38.4454 13.3159C39.2854 14.1166 40.6111 14.0903 41.4118 13.2568C42.2124 12.4234 42.1862 11.0911 41.3527 10.2905C36.0762 5.21743 28.9031 2.10011 21.0015 2.10011C13.0999 2.10011 5.92677 5.21743 0.643727 10.2839C-0.189747 11.0911 -0.215998 12.4168 0.584662 13.2568C1.38532 14.0969 2.71757 14.1231 3.55104 13.3159H3.5576ZM21.0015 16.8007C24.7292 16.8007 28.1287 18.1855 30.7275 20.4759C31.6004 21.2438 32.9261 21.1584 33.6939 20.2922C34.4618 19.4259 34.3765 18.0936 33.5102 17.3258C30.1763 14.3856 25.7923 12.6006 21.0015 12.6006C16.2107 12.6006 11.8267 14.3856 8.49938 17.3258C7.62653 18.0936 7.54778 19.4193 8.31562 20.2922C9.08347 21.165 10.4092 21.2438 11.282 20.4759C13.8743 18.1855 17.2738 16.8007 21.0081 16.8007H21.0015ZM25.2017 27.3012C25.2017 26.1872 24.7592 25.1189 23.9715 24.3312C23.1838 23.5435 22.1154 23.101 21.0015 23.101C19.8875 23.101 18.8192 23.5435 18.0315 24.3312C17.2438 25.1189 16.8013 26.1872 16.8013 27.3012C16.8013 28.4152 17.2438 29.4835 18.0315 30.2712C18.8192 31.0589 19.8875 31.5014 21.0015 31.5014C22.1154 31.5014 23.1838 31.0589 23.9715 30.2712C24.7592 29.4835 25.2017 28.4152 25.2017 27.3012Z" fill="#DB2777"/>
</svg>
