<svg width="312" height="43" viewBox="0 0 312 43" fill="none" xmlns="http://www.w3.org/2000/svg">
<path d="M96.6617 31.0003V13.1813H98.8194V22.0212H99.0283L107.033 13.1813H109.852L102.369 21.2207L109.852 31.0003H107.242L101.047 22.7172L98.8194 25.223V31.0003H96.6617ZM115.424 31.3135C114.577 31.3135 113.809 31.154 113.118 30.8349C112.428 30.5101 111.88 30.0432 111.474 29.4341C111.068 28.8193 110.865 28.0768 110.865 27.2068C110.865 26.4411 111.016 25.8205 111.317 25.3448C111.619 24.8634 112.022 24.4864 112.527 24.2137C113.031 23.9411 113.588 23.7381 114.197 23.6047C114.812 23.4655 115.43 23.3553 116.05 23.2741C116.863 23.1697 117.521 23.0913 118.026 23.0391C118.536 22.9811 118.907 22.8854 119.139 22.752C119.377 22.6186 119.496 22.3866 119.496 22.056V21.9864C119.496 21.1279 119.261 20.4608 118.791 19.9852C118.327 19.5096 117.622 19.2718 116.677 19.2718C115.697 19.2718 114.928 19.4864 114.371 19.9156C113.814 20.3448 113.423 20.8031 113.197 21.2903L111.248 20.5943C111.596 19.7822 112.06 19.1499 112.64 18.6975C113.226 18.2393 113.864 17.9203 114.554 17.7404C115.25 17.5548 115.934 17.462 116.607 17.462C117.037 17.462 117.53 17.5142 118.086 17.6186C118.649 17.7172 119.191 17.9232 119.713 18.2364C120.241 18.5496 120.679 19.0223 121.027 19.6546C121.375 20.2868 121.549 21.1337 121.549 22.1952V31.0003H119.496V29.1905H119.392C119.252 29.4805 119.02 29.7909 118.695 30.1215C118.371 30.4521 117.939 30.7334 117.399 30.9654C116.86 31.1975 116.201 31.3135 115.424 31.3135ZM115.737 29.4689C116.549 29.4689 117.234 29.3094 117.791 28.9904C118.353 28.6714 118.777 28.2595 119.061 27.7549C119.351 27.2503 119.496 26.7195 119.496 26.1627V24.2833C119.409 24.3877 119.218 24.4835 118.922 24.5705C118.632 24.6517 118.295 24.7242 117.912 24.788C117.535 24.846 117.167 24.8982 116.807 24.9446C116.454 24.9852 116.166 25.02 115.946 25.049C115.412 25.1186 114.914 25.2317 114.45 25.3883C113.991 25.5391 113.62 25.7683 113.336 26.0757C113.057 26.3773 112.918 26.7891 112.918 27.3112C112.918 28.0246 113.182 28.5641 113.71 28.9295C114.244 29.2891 114.919 29.4689 115.737 29.4689ZM124.422 31.0003V17.636H126.406V19.7242H126.58C126.858 19.0107 127.308 18.4568 127.928 18.0624C128.549 17.6621 129.294 17.462 130.165 17.462C131.046 17.462 131.78 17.6621 132.366 18.0624C132.957 18.4568 133.419 19.0107 133.749 19.7242H133.888C134.231 19.0339 134.744 18.4858 135.428 18.0798C136.113 17.6679 136.934 17.462 137.891 17.462C139.086 17.462 140.063 17.8361 140.823 18.5844C141.583 19.3269 141.963 20.484 141.963 22.056V31.0003H139.909V22.056C139.909 21.0699 139.64 20.3651 139.1 19.9417C138.561 19.5183 137.926 19.3066 137.195 19.3066C136.255 19.3066 135.527 19.5908 135.011 20.1592C134.495 20.7219 134.236 21.4353 134.236 22.2996V31.0003H132.148V21.8472C132.148 21.0873 131.902 20.4753 131.409 20.0113C130.916 19.5415 130.281 19.3066 129.503 19.3066C128.97 19.3066 128.471 19.4487 128.007 19.7329C127.549 20.0171 127.177 20.4115 126.893 20.9162C126.615 21.415 126.475 21.9922 126.475 22.6476V31.0003H124.422ZM148.775 31.3135C147.928 31.3135 147.159 31.154 146.469 30.8349C145.779 30.5101 145.231 30.0432 144.825 29.4341C144.418 28.8193 144.215 28.0768 144.215 27.2068C144.215 26.4411 144.366 25.8205 144.668 25.3448C144.97 24.8634 145.373 24.4864 145.877 24.2137C146.382 23.9411 146.939 23.7381 147.548 23.6047C148.163 23.4655 148.78 23.3553 149.401 23.2741C150.213 23.1697 150.871 23.0913 151.376 23.0391C151.887 22.9811 152.258 22.8854 152.49 22.752C152.728 22.6186 152.847 22.3866 152.847 22.056V21.9864C152.847 21.1279 152.612 20.4608 152.142 19.9852C151.678 19.5096 150.973 19.2718 150.028 19.2718C149.047 19.2718 148.279 19.4864 147.722 19.9156C147.165 20.3448 146.773 20.8031 146.547 21.2903L144.598 20.5943C144.946 19.7822 145.41 19.1499 145.99 18.6975C146.576 18.2393 147.214 17.9203 147.905 17.7404C148.601 17.5548 149.285 17.462 149.958 17.462C150.387 17.462 150.88 17.5142 151.437 17.6186C152 17.7172 152.542 17.9232 153.064 18.2364C153.592 18.5496 154.03 19.0223 154.378 19.6546C154.726 20.2868 154.9 21.1337 154.9 22.1952V31.0003H152.847V29.1905H152.742C152.603 29.4805 152.371 29.7909 152.046 30.1215C151.721 30.4521 151.289 30.7334 150.75 30.9654C150.21 31.1975 149.552 31.3135 148.775 31.3135ZM149.088 29.4689C149.9 29.4689 150.584 29.3094 151.141 28.9904C151.704 28.6714 152.127 28.2595 152.411 27.7549C152.702 27.2503 152.847 26.7195 152.847 26.1627V24.2833C152.76 24.3877 152.568 24.4835 152.272 24.5705C151.982 24.6517 151.646 24.7242 151.263 24.788C150.886 24.846 150.518 24.8982 150.158 24.9446C149.804 24.9852 149.517 25.02 149.297 25.049C148.763 25.1186 148.264 25.2317 147.8 25.3883C147.342 25.5391 146.971 25.7683 146.686 26.0757C146.408 26.3773 146.269 26.7891 146.269 27.3112C146.269 28.0246 146.533 28.5641 147.061 28.9295C147.594 29.2891 148.27 29.4689 149.088 29.4689ZM157.773 31.0003V17.636H159.756V19.6546H159.896C160.139 18.9933 160.58 18.4568 161.218 18.045C161.856 17.6331 162.575 17.4272 163.376 17.4272C163.527 17.4272 163.715 17.4301 163.941 17.4359C164.168 17.4417 164.339 17.4504 164.455 17.462V19.5502C164.385 19.5328 164.226 19.5067 163.976 19.4719C163.733 19.4313 163.474 19.411 163.202 19.411C162.552 19.411 161.972 19.5473 161.462 19.8199C160.957 20.0867 160.557 20.4579 160.261 20.9336C159.971 21.4034 159.826 21.94 159.826 22.5432V31.0003H157.773ZM172.03 31.0003V17.636H174.013V19.7242H174.187C174.466 19.0107 174.915 18.4568 175.536 18.0624C176.157 17.6621 176.902 17.462 177.772 17.462C178.654 17.462 179.387 17.6621 179.973 18.0624C180.565 18.4568 181.026 19.0107 181.357 19.7242H181.496C181.838 19.0339 182.352 18.4858 183.036 18.0798C183.72 17.6679 184.541 17.462 185.498 17.462C186.693 17.462 187.671 17.8361 188.43 18.5844C189.19 19.3269 189.57 20.484 189.57 22.056V31.0003H187.517V22.056C187.517 21.0699 187.247 20.3651 186.708 19.9417C186.168 19.5183 185.533 19.3066 184.802 19.3066C183.863 19.3066 183.135 19.5908 182.618 20.1592C182.102 20.7219 181.844 21.4353 181.844 22.2996V31.0003H179.756V21.8472C179.756 21.0873 179.509 20.4753 179.016 20.0113C178.523 19.5415 177.888 19.3066 177.111 19.3066C176.577 19.3066 176.078 19.4487 175.614 19.7329C175.156 20.0171 174.785 20.4115 174.501 20.9162C174.222 21.415 174.083 21.9922 174.083 22.6476V31.0003H172.03ZM196.382 31.3135C195.535 31.3135 194.767 31.154 194.076 30.8349C193.386 30.5101 192.838 30.0432 192.432 29.4341C192.026 28.8193 191.823 28.0768 191.823 27.2068C191.823 26.4411 191.974 25.8205 192.275 25.3448C192.577 24.8634 192.98 24.4864 193.485 24.2137C193.989 23.9411 194.546 23.7381 195.155 23.6047C195.77 23.4655 196.388 23.3553 197.009 23.2741C197.821 23.1697 198.479 23.0913 198.984 23.0391C199.494 22.9811 199.865 22.8854 200.097 22.752C200.335 22.6186 200.454 22.3866 200.454 22.056V21.9864C200.454 21.1279 200.219 20.4608 199.749 19.9852C199.285 19.5096 198.581 19.2718 197.635 19.2718C196.655 19.2718 195.886 19.4864 195.329 19.9156C194.773 20.3448 194.381 20.8031 194.155 21.2903L192.206 20.5943C192.554 19.7822 193.018 19.1499 193.598 18.6975C194.184 18.2393 194.822 17.9203 195.512 17.7404C196.208 17.5548 196.893 17.462 197.565 17.462C197.995 17.462 198.488 17.5142 199.045 17.6186C199.607 17.7172 200.15 17.9232 200.672 18.2364C201.199 18.5496 201.637 19.0223 201.985 19.6546C202.333 20.2868 202.507 21.1337 202.507 22.1952V31.0003H200.454V29.1905H200.35C200.21 29.4805 199.978 29.7909 199.654 30.1215C199.329 30.4521 198.897 30.7334 198.357 30.9654C197.818 31.1975 197.159 31.3135 196.382 31.3135ZM196.695 29.4689C197.507 29.4689 198.192 29.3094 198.749 28.9904C199.311 28.6714 199.735 28.2595 200.019 27.7549C200.309 27.2503 200.454 26.7195 200.454 26.1627V24.2833C200.367 24.3877 200.176 24.4835 199.88 24.5705C199.59 24.6517 199.253 24.7242 198.871 24.788C198.494 24.846 198.125 24.8982 197.766 24.9446C197.412 24.9852 197.125 25.02 196.904 25.049C196.371 25.1186 195.872 25.2317 195.408 25.3883C194.949 25.5391 194.578 25.7683 194.294 26.0757C194.016 26.3773 193.876 26.7891 193.876 27.3112C193.876 28.0246 194.14 28.5641 194.668 28.9295C195.202 29.2891 195.878 29.4689 196.695 29.4689ZM207.434 22.9608V31.0003H205.38V17.636H207.364V19.7242H207.538C207.851 19.0455 208.327 18.5003 208.965 18.0885C209.603 17.6708 210.427 17.462 211.436 17.462C212.341 17.462 213.132 17.6476 213.811 18.0189C214.49 18.3843 215.018 18.9411 215.395 19.6894C215.772 20.4318 215.96 21.3715 215.96 22.5084V31.0003H213.907V22.6476C213.907 21.5977 213.634 20.7799 213.089 20.194C212.544 19.6024 211.795 19.3066 210.844 19.3066C210.189 19.3066 209.603 19.4487 209.087 19.7329C208.576 20.0171 208.173 20.4318 207.877 20.9771C207.581 21.5223 207.434 22.1836 207.434 22.9608ZM223.884 31.2787C222.77 31.2787 221.787 30.9974 220.934 30.4347C220.082 29.8663 219.414 29.0658 218.933 28.0333C218.452 26.995 218.211 25.7683 218.211 24.3529C218.211 22.9492 218.452 21.7311 218.933 20.6987C219.414 19.6662 220.084 18.8686 220.943 18.306C221.801 17.7433 222.793 17.462 223.919 17.462C224.789 17.462 225.476 17.607 225.981 17.8971C226.491 18.1813 226.88 18.5061 227.146 18.8715C227.419 19.2312 227.631 19.527 227.782 19.759H227.956V13.1813H230.009V31.0003H228.025V28.9469H227.782C227.631 29.1905 227.416 29.4979 227.138 29.8692C226.859 30.2346 226.462 30.5623 225.946 30.8523C225.43 31.1366 224.742 31.2787 223.884 31.2787ZM224.162 29.4341C224.986 29.4341 225.682 29.2195 226.25 28.7903C226.819 28.3552 227.251 27.7549 227.547 26.9892C227.843 26.2178 227.99 25.3274 227.99 24.3181C227.99 23.3205 227.845 22.4475 227.555 21.6992C227.265 20.9452 226.836 20.3593 226.268 19.9417C225.699 19.5183 224.997 19.3066 224.162 19.3066C223.292 19.3066 222.567 19.5299 221.987 19.9765C221.413 20.4173 220.981 21.0177 220.691 21.7775C220.406 22.5316 220.264 23.3785 220.264 24.3181C220.264 25.2694 220.409 26.1337 220.699 26.9109C220.995 27.6824 221.43 28.2972 222.004 28.7555C222.584 29.2079 223.304 29.4341 224.162 29.4341ZM233.18 31.0003V17.636H235.233V31.0003H233.18ZM234.224 15.4087C233.824 15.4087 233.478 15.2724 233.188 14.9997C232.904 14.7271 232.762 14.3994 232.762 14.0166C232.762 13.6337 232.904 13.306 233.188 13.0334C233.478 12.7608 233.824 12.6244 234.224 12.6244C234.624 12.6244 234.966 12.7608 235.251 13.0334C235.541 13.306 235.686 13.6337 235.686 14.0166C235.686 14.3994 235.541 14.7271 235.251 14.9997C234.966 15.2724 234.624 15.4087 234.224 15.4087ZM249.912 31.0003H244.413V13.1813H250.156C251.884 13.1813 253.363 13.538 254.593 14.2515C255.823 14.9591 256.765 15.9771 257.421 17.3054C258.076 18.6279 258.404 20.2114 258.404 22.056C258.404 23.9121 258.073 25.5101 257.412 26.85C256.751 28.1841 255.788 29.2108 254.523 29.9301C253.259 30.6435 251.722 31.0003 249.912 31.0003ZM246.571 29.0861H249.773C251.246 29.0861 252.467 28.8019 253.436 28.2334C254.405 27.665 255.127 26.8558 255.602 25.806C256.078 24.7561 256.316 23.5061 256.316 22.056C256.316 20.6175 256.081 19.3791 255.611 18.3408C255.141 17.2967 254.439 16.4962 253.505 15.9394C252.572 15.3768 251.409 15.0954 250.016 15.0954H246.571V29.0861ZM264.803 31.3135C263.956 31.3135 263.187 31.154 262.497 30.8349C261.807 30.5101 261.259 30.0432 260.853 29.4341C260.446 28.8193 260.243 28.0768 260.243 27.2068C260.243 26.4411 260.394 25.8205 260.696 25.3448C260.998 24.8634 261.401 24.4864 261.905 24.2137C262.41 23.9411 262.967 23.7381 263.576 23.6047C264.191 23.4655 264.808 23.3553 265.429 23.2741C266.241 23.1697 266.899 23.0913 267.404 23.0391C267.915 22.9811 268.286 22.8854 268.518 22.752C268.756 22.6186 268.875 22.3866 268.875 22.056V21.9864C268.875 21.1279 268.64 20.4608 268.17 19.9852C267.706 19.5096 267.001 19.2718 266.056 19.2718C265.075 19.2718 264.307 19.4864 263.75 19.9156C263.193 20.3448 262.801 20.8031 262.575 21.2903L260.626 20.5943C260.974 19.7822 261.438 19.1499 262.018 18.6975C262.604 18.2393 263.242 17.9203 263.933 17.7404C264.629 17.5548 265.313 17.462 265.986 17.462C266.415 17.462 266.908 17.5142 267.465 17.6186C268.028 17.7172 268.57 17.9232 269.092 18.2364C269.62 18.5496 270.058 19.0223 270.406 19.6546C270.754 20.2868 270.928 21.1337 270.928 22.1952V31.0003H268.875V29.1905H268.77C268.631 29.4805 268.399 29.7909 268.074 30.1215C267.749 30.4521 267.317 30.7334 266.778 30.9654C266.238 31.1975 265.58 31.3135 264.803 31.3135ZM265.116 29.4689C265.928 29.4689 266.612 29.3094 267.169 28.9904C267.732 28.6714 268.155 28.2595 268.44 27.7549C268.73 27.2503 268.875 26.7195 268.875 26.1627V24.2833C268.788 24.3877 268.596 24.4835 268.3 24.5705C268.01 24.6517 267.674 24.7242 267.291 24.788C266.914 24.846 266.546 24.8982 266.186 24.9446C265.832 24.9852 265.545 25.02 265.325 25.049C264.791 25.1186 264.292 25.2317 263.828 25.3883C263.37 25.5391 262.999 25.7683 262.714 26.0757C262.436 26.3773 262.297 26.7891 262.297 27.3112C262.297 28.0246 262.561 28.5641 263.089 28.9295C263.622 29.2891 264.298 29.4689 265.116 29.4689ZM275.854 13.1813V31.0003H273.801V13.1813H275.854ZM282.673 31.3135C281.826 31.3135 281.057 31.154 280.367 30.8349C279.677 30.5101 279.128 30.0432 278.722 29.4341C278.316 28.8193 278.113 28.0768 278.113 27.2068C278.113 26.4411 278.264 25.8205 278.566 25.3448C278.867 24.8634 279.271 24.4864 279.775 24.2137C280.28 23.9411 280.837 23.7381 281.446 23.6047C282.061 23.4655 282.678 23.3553 283.299 23.2741C284.111 23.1697 284.769 23.0913 285.274 23.0391C285.785 22.9811 286.156 22.8854 286.388 22.752C286.626 22.6186 286.744 22.3866 286.744 22.056V21.9864C286.744 21.1279 286.51 20.4608 286.04 19.9852C285.576 19.5096 284.871 19.2718 283.925 19.2718C282.945 19.2718 282.177 19.4864 281.62 19.9156C281.063 20.3448 280.671 20.8031 280.445 21.2903L278.496 20.5943C278.844 19.7822 279.308 19.1499 279.888 18.6975C280.474 18.2393 281.112 17.9203 281.802 17.7404C282.499 17.5548 283.183 17.462 283.856 17.462C284.285 17.462 284.778 17.5142 285.335 17.6186C285.898 17.7172 286.44 17.9232 286.962 18.2364C287.49 18.5496 287.928 19.0223 288.276 19.6546C288.624 20.2868 288.798 21.1337 288.798 22.1952V31.0003H286.744V29.1905H286.64C286.501 29.4805 286.269 29.7909 285.944 30.1215C285.619 30.4521 285.187 30.7334 284.648 30.9654C284.108 31.1975 283.45 31.3135 282.673 31.3135ZM282.986 29.4689C283.798 29.4689 284.482 29.3094 285.039 28.9904C285.602 28.6714 286.025 28.2595 286.309 27.7549C286.599 27.2503 286.744 26.7195 286.744 26.1627V24.2833C286.657 24.3877 286.466 24.4835 286.17 24.5705C285.88 24.6517 285.544 24.7242 285.161 24.788C284.784 24.846 284.416 24.8982 284.056 24.9446C283.702 24.9852 283.415 25.02 283.195 25.049C282.661 25.1186 282.162 25.2317 281.698 25.3883C281.24 25.5391 280.869 25.7683 280.584 26.0757C280.306 26.3773 280.167 26.7891 280.167 27.3112C280.167 28.0246 280.431 28.5641 280.959 28.9295C281.492 29.2891 282.168 29.4689 282.986 29.4689ZM291.671 31.0003V17.636H293.654V19.7242H293.828C294.107 19.0107 294.556 18.4568 295.177 18.0624C295.798 17.6621 296.543 17.462 297.413 17.462C298.295 17.462 299.028 17.6621 299.614 18.0624C300.206 18.4568 300.667 19.0107 300.998 19.7242H301.137C301.479 19.0339 301.992 18.4858 302.677 18.0798C303.361 17.6679 304.182 17.462 305.139 17.462C306.334 17.462 307.311 17.8361 308.071 18.5844C308.831 19.3269 309.211 20.484 309.211 22.056V31.0003H307.158V22.056C307.158 21.0699 306.888 20.3651 306.349 19.9417C305.809 19.5183 305.174 19.3066 304.443 19.3066C303.504 19.3066 302.776 19.5908 302.259 20.1592C301.743 20.7219 301.485 21.4353 301.485 22.2996V31.0003H299.397V21.8472C299.397 21.0873 299.15 20.4753 298.657 20.0113C298.164 19.5415 297.529 19.3066 296.752 19.3066C296.218 19.3066 295.719 19.4487 295.255 19.7329C294.797 20.0171 294.426 20.4115 294.142 20.9162C293.863 21.415 293.724 21.9922 293.724 22.6476V31.0003H291.671Z" fill="black"/>
<path d="M7.87534 6.34129C7.87534 5.74244 8.35935 5.25023 8.96641 5.25023C9.25353 5.25023 9.53245 5.36508 9.73754 5.57017L10.9599 6.79249C10.6645 7.5308 10.5005 8.34294 10.5005 9.1879C10.5005 10.8204 11.0911 12.3052 12.0755 13.4537C11.6407 14.2084 11.7474 15.1846 12.3873 15.8327C13.1584 16.6039 14.4053 16.6039 15.1682 15.8327L23.7081 7.3011C24.4792 6.52997 24.4792 5.28304 23.7081 4.52012C23.06 3.87204 22.0838 3.7736 21.3291 4.20839C20.1806 3.21577 18.6957 2.62511 17.0632 2.62511C16.2183 2.62511 15.4061 2.78918 14.6678 3.07631L13.4455 1.85399C12.256 0.664482 10.6399 0 8.96641 0C5.46352 0 2.62511 2.83841 2.62511 6.34129V21.0009C1.1731 21.0009 0 22.174 0 23.626C0 25.0781 1.1731 26.2511 2.62511 26.2511H39.3767C40.8287 26.2511 42.0018 25.0781 42.0018 23.626C42.0018 22.174 40.8287 21.0009 39.3767 21.0009H7.87534V6.34129ZM2.62511 28.8763V30.1888C2.62511 32.5186 3.64235 34.6187 5.25023 36.0625V39.3767C5.25023 40.8287 6.42333 42.0018 7.87534 42.0018C9.32736 42.0018 10.5005 40.8287 10.5005 39.3767V38.0642H31.5014V39.3767C31.5014 40.8287 32.6745 42.0018 34.1265 42.0018C35.5785 42.0018 36.7516 40.8287 36.7516 39.3767V36.0625C38.3595 34.6187 39.3767 32.5268 39.3767 30.1888V28.8763H2.62511Z" fill="#DB2777"/>
</svg>
