<svg width="211" height="43" viewBox="0 0 211 43" fill="none" xmlns="http://www.w3.org/2000/svg">
<path d="M77.393 31.0003H75.1308L81.6737 13.1814H83.9011L90.444 31.0003H88.1818L82.857 16.0004H82.7178L77.393 31.0003ZM78.2283 24.0398H87.3466V25.954H78.2283V24.0398ZM105.846 18.7498H103.688C103.56 18.1292 103.337 17.5839 103.018 17.1141C102.705 16.6442 102.322 16.2498 101.87 15.9308C101.423 15.606 100.927 15.3623 100.382 15.1999C99.8365 15.0375 99.268 14.9563 98.6764 14.9563C97.5975 14.9563 96.6201 15.2289 95.7443 15.7742C94.8742 16.3194 94.1811 17.1228 93.6648 18.1843C93.1544 19.2457 92.8992 20.5479 92.8992 22.0909C92.8992 23.6338 93.1544 24.936 93.6648 25.9975C94.1811 27.0589 94.8742 27.8623 95.7443 28.4075C96.6201 28.9528 97.5975 29.2254 98.6764 29.2254C99.268 29.2254 99.8365 29.1442 100.382 28.9818C100.927 28.8194 101.423 28.5787 101.87 28.2596C102.322 27.9348 102.705 27.5375 103.018 27.0676C103.337 26.592 103.56 26.0468 103.688 25.4319H105.846C105.683 26.3426 105.388 27.1575 104.958 27.8768C104.529 28.5961 103.995 29.208 103.357 29.7126C102.719 30.2115 102.003 30.5914 101.208 30.8524C100.419 31.1135 99.5755 31.244 98.6764 31.244C97.1567 31.244 95.8052 30.8727 94.6219 30.1303C93.4386 29.3878 92.5076 28.3321 91.829 26.9632C91.1503 25.5943 90.811 23.9702 90.811 22.0909C90.811 20.2115 91.1503 18.5874 91.829 17.2185C92.5076 15.8496 93.4386 14.7939 94.6219 14.0514C95.8052 13.309 97.1567 12.9378 98.6764 12.9378C99.5755 12.9378 100.419 13.0683 101.208 13.3293C102.003 13.5903 102.719 13.9731 103.357 14.4778C103.995 14.9766 104.529 15.5857 104.958 16.3049C105.388 17.0184 105.683 17.8333 105.846 18.7498ZM120.494 12.3461L114.752 33.6801H112.872L118.615 12.3461H120.494ZM142.477 13.1814V31.0003H140.389L130.679 17.0097H130.505V31.0003H128.348V13.1814H130.436L140.18 27.2069H140.354V13.1814H142.477ZM151.071 31.2788C149.864 31.2788 148.806 30.9916 147.895 30.4174C146.99 29.8432 146.283 29.0398 145.772 28.0073C145.268 26.9748 145.015 25.7683 145.015 24.3878C145.015 22.9957 145.268 21.7805 145.772 20.7423C146.283 19.704 146.99 18.8977 147.895 18.3235C148.806 17.7492 149.864 17.4621 151.071 17.4621C152.277 17.4621 153.333 17.7492 154.238 18.3235C155.149 18.8977 155.856 19.704 156.361 20.7423C156.871 21.7805 157.127 22.9957 157.127 24.3878C157.127 25.7683 156.871 26.9748 156.361 28.0073C155.856 29.0398 155.149 29.8432 154.238 30.4174C153.333 30.9916 152.277 31.2788 151.071 31.2788ZM151.071 29.4342C151.987 29.4342 152.741 29.1993 153.333 28.7295C153.925 28.2596 154.363 27.6419 154.647 26.8762C154.931 26.1106 155.073 25.2811 155.073 24.3878C155.073 23.4946 154.931 22.6622 154.647 21.8907C154.363 21.1193 153.925 20.4957 153.333 20.0201C152.741 19.5445 151.987 19.3066 151.071 19.3066C150.154 19.3066 149.4 19.5445 148.809 20.0201C148.217 20.4957 147.779 21.1193 147.495 21.8907C147.211 22.6622 147.069 23.4946 147.069 24.3878C147.069 25.2811 147.211 26.1106 147.495 26.8762C147.779 27.6419 148.217 28.2596 148.809 28.7295C149.4 29.1993 150.154 29.4342 151.071 29.4342ZM161.439 22.9609V31.0003H159.386V17.6361H161.37V19.7243H161.544C161.857 19.0456 162.333 18.5004 162.971 18.0886C163.609 17.6709 164.432 17.4621 165.442 17.4621C166.346 17.4621 167.138 17.6477 167.817 18.0189C168.496 18.3844 169.023 18.9412 169.4 19.6895C169.777 20.4319 169.966 21.3716 169.966 22.5085V31.0003H167.913V22.6477C167.913 21.5978 167.64 20.78 167.095 20.1941C166.549 19.6025 165.801 19.3066 164.85 19.3066C164.194 19.3066 163.609 19.4488 163.092 19.733C162.582 20.0172 162.179 20.4319 161.883 20.9772C161.587 21.5224 161.439 22.1837 161.439 22.9609ZM179.868 31.0003H177.606L184.149 13.1814H186.376L192.919 31.0003H190.657L185.332 16.0004H185.193L179.868 31.0003ZM180.703 24.0398H189.822V25.954H180.703V24.0398ZM208.321 18.7498H206.163C206.036 18.1292 205.812 17.5839 205.493 17.1141C205.18 16.6442 204.797 16.2498 204.345 15.9308C203.898 15.606 203.402 15.3623 202.857 15.1999C202.312 15.0375 201.743 14.9563 201.152 14.9563C200.073 14.9563 199.095 15.2289 198.219 15.7742C197.349 16.3194 196.656 17.1228 196.14 18.1843C195.63 19.2457 195.374 20.5479 195.374 22.0909C195.374 23.6338 195.63 24.936 196.14 25.9975C196.656 27.0589 197.349 27.8623 198.219 28.4075C199.095 28.9528 200.073 29.2254 201.152 29.2254C201.743 29.2254 202.312 29.1442 202.857 28.9818C203.402 28.8194 203.898 28.5787 204.345 28.2596C204.797 27.9348 205.18 27.5375 205.493 27.0676C205.812 26.592 206.036 26.0468 206.163 25.4319H208.321C208.159 26.3426 207.863 27.1575 207.433 27.8768C207.004 28.5961 206.471 29.208 205.833 29.7126C205.194 30.2115 204.478 30.5914 203.683 30.8524C202.895 31.1135 202.051 31.244 201.152 31.244C199.632 31.244 198.28 30.8727 197.097 30.1303C195.914 29.3878 194.983 28.3321 194.304 26.9632C193.626 25.5943 193.286 23.9702 193.286 22.0909C193.286 20.2115 193.626 18.5874 194.304 17.2185C194.983 15.8496 195.914 14.7939 197.097 14.0514C198.28 13.309 199.632 12.9378 201.152 12.9378C202.051 12.9378 202.895 13.0683 203.683 13.3293C204.478 13.5903 205.194 13.9731 205.833 14.4778C206.471 14.9766 207.004 15.5857 207.433 16.3049C207.863 17.0184 208.159 17.8333 208.321 18.7498Z" fill="black"/>
<g clip-path="url(#clip0_119_557)">
<path d="M23.626 2.62511C23.626 4.07713 24.7991 5.25023 26.2511 5.25023H28.8763C30.3283 5.25023 31.5014 6.42333 31.5014 7.87534C31.5014 9.32736 30.3283 10.5005 28.8763 10.5005H2.62511C1.1731 10.5005 0 11.6736 0 13.1256C0 14.5776 1.1731 15.7507 2.62511 15.7507H28.8763C33.2241 15.7507 36.7516 12.2232 36.7516 7.87534C36.7516 3.5275 33.2241 0 28.8763 0H26.2511C24.7991 0 23.626 1.1731 23.626 2.62511ZM28.8763 31.5014C28.8763 32.9534 30.0494 34.1265 31.5014 34.1265H34.1265C38.4743 34.1265 42.0018 30.599 42.0018 26.2511C42.0018 21.9033 38.4743 18.3758 34.1265 18.3758H2.62511C1.1731 18.3758 0 19.5489 0 21.0009C0 22.4529 1.1731 23.626 2.62511 23.626H34.1265C35.5785 23.626 36.7516 24.7991 36.7516 26.2511C36.7516 27.7032 35.5785 28.8763 34.1265 28.8763H31.5014C30.0494 28.8763 28.8763 30.0494 28.8763 31.5014ZM10.5005 42.0018H13.1256C17.4734 42.0018 21.0009 38.4743 21.0009 34.1265C21.0009 29.7786 17.4734 26.2511 13.1256 26.2511H2.62511C1.1731 26.2511 0 27.4242 0 28.8763C0 30.3283 1.1731 31.5014 2.62511 31.5014H13.1256C14.5776 31.5014 15.7507 32.6745 15.7507 34.1265C15.7507 35.5785 14.5776 36.7516 13.1256 36.7516H10.5005C9.04844 36.7516 7.87534 37.9247 7.87534 39.3767C7.87534 40.8287 9.04844 42.0018 10.5005 42.0018Z" fill="#DB2777"/>
</g>
<defs>
<clipPath id="clip0_119_557">
<rect width="42.0018" height="42.0018" fill="white"/>
</clipPath>
</defs>
</svg>
