<svg width="367" height="49" viewBox="0 0 367 49" fill="none" xmlns="http://www.w3.org/2000/svg">
<path d="M97.0015 34.5004V16.6815H99.1593V32.5863H107.442V34.5004H97.0015ZM115.059 34.7788C113.853 34.7788 112.794 34.4917 111.883 33.9175C110.979 33.3432 110.271 32.5399 109.76 31.5074C109.256 30.4749 109.003 29.2684 109.003 27.8879C109.003 26.4958 109.256 25.2806 109.76 24.2423C110.271 23.204 110.979 22.3978 111.883 21.8235C112.794 21.2493 113.853 20.9622 115.059 20.9622C116.266 20.9622 117.321 21.2493 118.226 21.8235C119.137 22.3978 119.844 23.204 120.349 24.2423C120.86 25.2806 121.115 26.4958 121.115 27.8879C121.115 29.2684 120.86 30.4749 120.349 31.5074C119.844 32.5399 119.137 33.3432 118.226 33.9175C117.321 34.4917 116.266 34.7788 115.059 34.7788ZM115.059 32.9343C115.976 32.9343 116.73 32.6994 117.321 32.2295C117.913 31.7597 118.351 31.142 118.635 30.3763C118.919 29.6106 119.061 28.7812 119.061 27.8879C119.061 26.9946 118.919 26.1623 118.635 25.3908C118.351 24.6194 117.913 23.9958 117.321 23.5202C116.73 23.0445 115.976 22.8067 115.059 22.8067C114.143 22.8067 113.389 23.0445 112.797 23.5202C112.205 23.9958 111.767 24.6194 111.483 25.3908C111.199 26.1623 111.057 26.9946 111.057 27.8879C111.057 28.7812 111.199 29.6106 111.483 30.3763C111.767 31.142 112.205 31.7597 112.797 32.2295C113.389 32.6994 114.143 32.9343 115.059 32.9343ZM125.288 29.628L125.254 27.0874H125.671L131.518 21.1362H134.059L127.829 27.4355H127.655L125.288 29.628ZM123.374 34.5004V16.6815H125.428V34.5004H123.374ZM131.866 34.5004L126.646 27.8879L128.107 26.461L134.476 34.5004H131.866ZM139.759 34.8136C138.912 34.8136 138.144 34.6541 137.453 34.3351C136.763 34.0103 136.215 33.5433 135.809 32.9343C135.403 32.3194 135.2 31.577 135.2 30.7069C135.2 29.9413 135.351 29.3206 135.652 28.845C135.954 28.3635 136.357 27.9865 136.862 27.7139C137.366 27.4413 137.923 27.2383 138.532 27.1048C139.147 26.9656 139.765 26.8554 140.386 26.7742C141.198 26.6698 141.856 26.5915 142.361 26.5393C142.871 26.4813 143.242 26.3856 143.474 26.2522C143.712 26.1188 143.831 25.8868 143.831 25.5561V25.4865C143.831 24.6281 143.596 23.961 143.126 23.4854C142.662 23.0097 141.957 22.7719 141.012 22.7719C140.032 22.7719 139.263 22.9865 138.706 23.4158C138.149 23.845 137.758 24.3032 137.532 24.7905L135.583 24.0944C135.931 23.2824 136.395 22.6501 136.975 22.1977C137.561 21.7394 138.199 21.4204 138.889 21.2406C139.585 21.055 140.27 20.9622 140.942 20.9622C141.372 20.9622 141.865 21.0144 142.421 21.1188C142.984 21.2174 143.526 21.4233 144.048 21.7365C144.576 22.0498 145.014 22.5225 145.362 23.1547C145.71 23.787 145.884 24.6339 145.884 25.6953V34.5004H143.831V32.6907H143.727C143.587 32.9807 143.355 33.291 143.031 33.6216C142.706 33.9523 142.274 34.2336 141.734 34.4656C141.195 34.6976 140.536 34.8136 139.759 34.8136ZM140.072 32.9691C140.884 32.9691 141.569 32.8096 142.126 32.4906C142.688 32.1715 143.112 31.7597 143.396 31.2551C143.686 30.7504 143.831 30.2197 143.831 29.6628V27.7835C143.744 27.8879 143.553 27.9836 143.257 28.0706C142.967 28.1518 142.63 28.2243 142.247 28.2881C141.87 28.3461 141.502 28.3983 141.142 28.4447C140.789 28.4854 140.502 28.5202 140.281 28.5492C139.747 28.6188 139.249 28.7319 138.785 28.8885C138.326 29.0393 137.955 29.2684 137.671 29.5758C137.392 29.8775 137.253 30.2893 137.253 30.8113C137.253 31.5248 137.517 32.0642 138.045 32.4297C138.579 32.7893 139.254 32.9691 140.072 32.9691ZM158.223 24.1292L156.379 24.6513C156.263 24.3438 156.092 24.0451 155.866 23.7551C155.645 23.4593 155.344 23.2156 154.961 23.0242C154.578 22.8328 154.088 22.7371 153.49 22.7371C152.672 22.7371 151.991 22.9256 151.446 23.3027C150.906 23.6739 150.636 24.1466 150.636 24.7209C150.636 25.2313 150.822 25.6344 151.193 25.9303C151.565 26.2261 152.145 26.4726 152.933 26.6698L154.917 27.1571C156.112 27.4471 157.002 27.8908 157.588 28.4883C158.174 29.0799 158.467 29.8427 158.467 30.7765C158.467 31.5422 158.247 32.2266 157.806 32.8299C157.371 33.4331 156.762 33.9088 155.979 34.2568C155.196 34.6048 154.285 34.7788 153.247 34.7788C151.884 34.7788 150.755 34.483 149.862 33.8914C148.969 33.2997 148.403 32.4355 148.165 31.2986L150.114 30.8113C150.3 31.5306 150.651 32.07 151.167 32.4297C151.689 32.7893 152.371 32.9691 153.212 32.9691C154.169 32.9691 154.929 32.7661 155.491 32.36C156.06 31.9482 156.344 31.4552 156.344 30.8809C156.344 30.4169 156.182 30.0283 155.857 29.715C155.532 29.396 155.033 29.1582 154.36 29.0016L152.133 28.4796C150.909 28.1895 150.01 27.74 149.436 27.1309C148.867 26.5161 148.583 25.7475 148.583 24.8253C148.583 24.0712 148.795 23.4042 149.218 22.8241C149.647 22.2441 150.23 21.7887 150.967 21.4581C151.71 21.1275 152.551 20.9622 153.49 20.9622C154.813 20.9622 155.851 21.2522 156.605 21.8322C157.365 22.4123 157.904 23.1779 158.223 24.1292ZM160.683 34.5004V21.1362H162.736V34.5004H160.683ZM161.727 18.9088C161.327 18.9088 160.982 18.7725 160.692 18.4999C160.407 18.2273 160.265 17.8995 160.265 17.5167C160.265 17.1339 160.407 16.8062 160.692 16.5335C160.982 16.2609 161.327 16.1246 161.727 16.1246C162.127 16.1246 162.469 16.2609 162.754 16.5335C163.044 16.8062 163.189 17.1339 163.189 17.5167C163.189 17.8995 163.044 18.2273 162.754 18.4999C162.469 18.7725 162.127 18.9088 161.727 18.9088ZM171.916 34.5004V16.6815H177.937C179.335 16.6815 180.478 16.9338 181.365 17.4384C182.259 17.9372 182.92 18.613 183.349 19.4657C183.778 20.3183 183.993 21.2696 183.993 22.3195C183.993 23.3694 183.778 24.3235 183.349 25.182C182.926 26.0405 182.27 26.7249 181.383 27.2354C180.495 27.74 179.358 27.9923 177.972 27.9923H173.657V26.0782H177.902C178.86 26.0782 179.628 25.9129 180.208 25.5822C180.788 25.2516 181.209 24.805 181.47 24.2423C181.737 23.6739 181.87 23.0329 181.87 22.3195C181.87 21.606 181.737 20.968 181.47 20.4053C181.209 19.8427 180.785 19.4019 180.199 19.0828C179.614 18.758 178.836 18.5956 177.868 18.5956H174.074V34.5004H171.916ZM186.315 34.5004V21.1362H188.369V34.5004H186.315ZM187.359 18.9088C186.959 18.9088 186.614 18.7725 186.324 18.4999C186.04 18.2273 185.898 17.8995 185.898 17.5167C185.898 17.1339 186.04 16.8062 186.324 16.5335C186.614 16.2609 186.959 16.1246 187.359 16.1246C187.76 16.1246 188.102 16.2609 188.386 16.5335C188.676 16.8062 188.821 17.1339 188.821 17.5167C188.821 17.8995 188.676 18.2273 188.386 18.4999C188.102 18.7725 187.76 18.9088 187.359 18.9088ZM193.308 26.461V34.5004H191.255V21.1362H193.238V23.2244H193.412C193.726 22.5457 194.201 22.0005 194.839 21.5886C195.477 21.171 196.301 20.9622 197.31 20.9622C198.215 20.9622 199.007 21.1478 199.686 21.519C200.364 21.8844 200.892 22.4413 201.269 23.1895C201.646 23.932 201.835 24.8717 201.835 26.0086V34.5004H199.781V26.1478C199.781 25.0979 199.509 24.28 198.963 23.6942C198.418 23.1025 197.67 22.8067 196.719 22.8067C196.063 22.8067 195.477 22.9488 194.961 23.2331C194.451 23.5173 194.047 23.932 193.752 24.4772C193.456 25.0225 193.308 25.6837 193.308 26.461ZM210.106 39.7904C209.114 39.7904 208.262 39.6628 207.548 39.4076C206.835 39.1582 206.24 38.8275 205.764 38.4157C205.295 38.0097 204.921 37.5746 204.642 37.1106L206.278 35.9621C206.463 36.2057 206.698 36.4842 206.983 36.7974C207.267 37.1164 207.655 37.3919 208.148 37.624C208.647 37.8618 209.3 37.9807 210.106 37.9807C211.185 37.9807 212.075 37.7197 212.777 37.1976C213.479 36.6756 213.83 35.8577 213.83 34.744V32.0294H213.656C213.505 32.273 213.291 32.5747 213.012 32.9343C212.74 33.2881 212.345 33.6042 211.829 33.8827C211.318 34.1553 210.628 34.2916 209.758 34.2916C208.679 34.2916 207.711 34.0364 206.852 33.5259C205.999 33.0155 205.324 32.273 204.825 31.2986C204.332 30.3241 204.085 29.1408 204.085 27.7487C204.085 26.3798 204.326 25.1878 204.807 24.1727C205.289 23.1518 205.959 22.363 206.817 21.8061C207.676 21.2435 208.668 20.9622 209.793 20.9622C210.663 20.9622 211.353 21.1072 211.864 21.3972C212.38 21.6814 212.774 22.0063 213.047 22.3717C213.325 22.7313 213.54 23.0271 213.691 23.2592H213.9V21.1362H215.883V34.8832C215.883 36.0317 215.622 36.9656 215.1 37.6849C214.584 38.4099 213.888 38.9407 213.012 39.2771C212.142 39.6193 211.173 39.7904 210.106 39.7904ZM210.037 32.4471C210.86 32.4471 211.556 32.2585 212.125 31.8815C212.693 31.5045 213.125 30.9621 213.421 30.2545C213.717 29.5468 213.865 28.7 213.865 27.7139C213.865 26.751 213.72 25.9013 213.43 25.1646C213.14 24.4279 212.711 23.8508 212.142 23.4332C211.574 23.0155 210.872 22.8067 210.037 22.8067C209.166 22.8067 208.441 23.0271 207.861 23.468C207.287 23.9088 206.855 24.5004 206.565 25.2429C206.281 25.9854 206.139 26.809 206.139 27.7139C206.139 28.642 206.284 29.4627 206.574 30.1762C206.869 30.8838 207.305 31.4407 207.879 31.8467C208.459 32.2469 209.178 32.4471 210.037 32.4471ZM224.161 39.7904C223.17 39.7904 222.317 39.6628 221.603 39.4076C220.89 39.1582 220.295 38.8275 219.82 38.4157C219.35 38.0097 218.976 37.5746 218.697 37.1106L220.333 35.9621C220.519 36.2057 220.754 36.4842 221.038 36.7974C221.322 37.1164 221.711 37.3919 222.204 37.624C222.703 37.8618 223.355 37.9807 224.161 37.9807C225.24 37.9807 226.131 37.7197 226.833 37.1976C227.534 36.6756 227.885 35.8577 227.885 34.744V32.0294H227.711C227.56 32.273 227.346 32.5747 227.067 32.9343C226.795 33.2881 226.4 33.6042 225.884 33.8827C225.374 34.1553 224.683 34.2916 223.813 34.2916C222.735 34.2916 221.766 34.0364 220.907 33.5259C220.055 33.0155 219.379 32.273 218.88 31.2986C218.387 30.3241 218.141 29.1408 218.141 27.7487C218.141 26.3798 218.381 25.1878 218.863 24.1727C219.344 23.1518 220.014 22.363 220.873 21.8061C221.731 21.2435 222.723 20.9622 223.848 20.9622C224.718 20.9622 225.409 21.1072 225.919 21.3972C226.435 21.6814 226.83 22.0063 227.102 22.3717C227.381 22.7313 227.595 23.0271 227.746 23.2592H227.955V21.1362H229.939V34.8832C229.939 36.0317 229.678 36.9656 229.156 37.6849C228.639 38.4099 227.943 38.9407 227.067 39.2771C226.197 39.6193 225.229 39.7904 224.161 39.7904ZM224.092 32.4471C224.915 32.4471 225.612 32.2585 226.18 31.8815C226.748 31.5045 227.181 30.9621 227.476 30.2545C227.772 29.5468 227.92 28.7 227.92 27.7139C227.92 26.751 227.775 25.9013 227.485 25.1646C227.195 24.4279 226.766 23.8508 226.197 23.4332C225.629 23.0155 224.927 22.8067 224.092 22.8067C223.222 22.8067 222.497 23.0271 221.917 23.468C221.342 23.9088 220.91 24.5004 220.62 25.2429C220.336 25.9854 220.194 26.809 220.194 27.7139C220.194 28.642 220.339 29.4627 220.629 30.1762C220.925 30.8838 221.36 31.4407 221.934 31.8467C222.514 32.2469 223.233 32.4471 224.092 32.4471ZM232.822 34.5004V21.1362H234.876V34.5004H232.822ZM233.866 18.9088C233.466 18.9088 233.121 18.7725 232.831 18.4999C232.547 18.2273 232.405 17.8995 232.405 17.5167C232.405 17.1339 232.547 16.8062 232.831 16.5335C233.121 16.2609 233.466 16.1246 233.866 16.1246C234.267 16.1246 234.609 16.2609 234.893 16.5335C235.183 16.8062 235.328 17.1339 235.328 17.5167C235.328 17.8995 235.183 18.2273 234.893 18.4999C234.609 18.7725 234.267 18.9088 233.866 18.9088ZM237.761 34.5004V21.1362H239.745V23.1547H239.884C240.128 22.4935 240.569 21.957 241.207 21.5451C241.845 21.1333 242.564 20.9274 243.365 20.9274C243.516 20.9274 243.704 20.9303 243.93 20.9361C244.156 20.9419 244.328 20.9506 244.444 20.9622V23.0503C244.374 23.0329 244.214 23.0068 243.965 22.972C243.721 22.9314 243.463 22.9111 243.191 22.9111C242.541 22.9111 241.961 23.0474 241.451 23.3201C240.946 23.5869 240.546 23.9581 240.25 24.4337C239.96 24.9036 239.815 25.4401 239.815 26.0434V34.5004H237.761ZM259.118 16.6815H261.276V29.4192C261.276 30.5561 261.067 31.5219 260.65 32.3165C260.232 33.1112 259.643 33.7145 258.883 34.1263C258.123 34.5381 257.227 34.744 256.195 34.744C255.22 34.744 254.353 34.5671 253.593 34.2133C252.833 33.8537 252.236 33.3432 251.801 32.682C251.366 32.0207 251.148 31.2348 251.148 30.3241H253.271C253.271 30.8287 253.396 31.2696 253.645 31.6466C253.901 32.0178 254.249 32.3078 254.69 32.5167C255.13 32.7255 255.632 32.8299 256.195 32.8299C256.815 32.8299 257.343 32.6994 257.778 32.4384C258.213 32.1773 258.544 31.7945 258.77 31.2899C259.002 30.7794 259.118 30.1559 259.118 29.4192V16.6815ZM268.379 34.8136C267.533 34.8136 266.764 34.6541 266.074 34.3351C265.384 34.0103 264.835 33.5433 264.429 32.9343C264.023 32.3194 263.82 31.577 263.82 30.7069C263.82 29.9413 263.971 29.3206 264.273 28.845C264.574 28.3635 264.977 27.9865 265.482 27.7139C265.987 27.4413 266.544 27.2383 267.153 27.1048C267.767 26.9656 268.385 26.8554 269.006 26.7742C269.818 26.6698 270.476 26.5915 270.981 26.5393C271.491 26.4813 271.863 26.3856 272.095 26.2522C272.332 26.1188 272.451 25.8868 272.451 25.5561V25.4865C272.451 24.6281 272.216 23.961 271.747 23.4854C271.283 23.0097 270.578 22.7719 269.632 22.7719C268.652 22.7719 267.884 22.9865 267.327 23.4158C266.77 23.845 266.378 24.3032 266.152 24.7905L264.203 24.0944C264.551 23.2824 265.015 22.6501 265.595 22.1977C266.181 21.7394 266.819 21.4204 267.509 21.2406C268.205 21.055 268.89 20.9622 269.563 20.9622C269.992 20.9622 270.485 21.0144 271.042 21.1188C271.604 21.2174 272.147 21.4233 272.669 21.7365C273.197 22.0498 273.635 22.5225 273.983 23.1547C274.331 23.787 274.505 24.6339 274.505 25.6953V34.5004H272.451V32.6907H272.347C272.208 32.9807 271.976 33.291 271.651 33.6216C271.326 33.9523 270.894 34.2336 270.354 34.4656C269.815 34.6976 269.157 34.8136 268.379 34.8136ZM268.693 32.9691C269.505 32.9691 270.189 32.8096 270.746 32.4906C271.309 32.1715 271.732 31.7597 272.016 31.2551C272.306 30.7504 272.451 30.2197 272.451 29.6628V27.7835C272.364 27.8879 272.173 27.9836 271.877 28.0706C271.587 28.1518 271.251 28.2243 270.868 28.2881C270.491 28.3461 270.122 28.3983 269.763 28.4447C269.409 28.4854 269.122 28.5202 268.901 28.5492C268.368 28.6188 267.869 28.7319 267.405 28.8885C266.947 29.0393 266.576 29.2684 266.291 29.5758C266.013 29.8775 265.874 30.2893 265.874 30.8113C265.874 31.5248 266.138 32.0642 266.665 32.4297C267.199 32.7893 267.875 32.9691 268.693 32.9691ZM279.431 16.6815V34.5004H277.377V16.6815H279.431ZM286.249 34.8136C285.402 34.8136 284.634 34.6541 283.944 34.3351C283.253 34.0103 282.705 33.5433 282.299 32.9343C281.893 32.3194 281.69 31.577 281.69 30.7069C281.69 29.9413 281.841 29.3206 282.143 28.845C282.444 28.3635 282.847 27.9865 283.352 27.7139C283.857 27.4413 284.414 27.2383 285.023 27.1048C285.637 26.9656 286.255 26.8554 286.876 26.7742C287.688 26.6698 288.346 26.5915 288.851 26.5393C289.361 26.4813 289.733 26.3856 289.965 26.2522C290.202 26.1188 290.321 25.8868 290.321 25.5561V25.4865C290.321 24.6281 290.086 23.961 289.617 23.4854C289.152 23.0097 288.448 22.7719 287.502 22.7719C286.522 22.7719 285.753 22.9865 285.197 23.4158C284.64 23.845 284.248 24.3032 284.022 24.7905L282.073 24.0944C282.421 23.2824 282.885 22.6501 283.465 22.1977C284.051 21.7394 284.689 21.4204 285.379 21.2406C286.075 21.055 286.76 20.9622 287.433 20.9622C287.862 20.9622 288.355 21.0144 288.912 21.1188C289.474 21.2174 290.017 21.4233 290.539 21.7365C291.067 22.0498 291.505 22.5225 291.853 23.1547C292.201 23.787 292.375 24.6339 292.375 25.6953V34.5004H290.321V32.6907H290.217C290.078 32.9807 289.846 33.291 289.521 33.6216C289.196 33.9523 288.764 34.2336 288.224 34.4656C287.685 34.6976 287.027 34.8136 286.249 34.8136ZM286.563 32.9691C287.375 32.9691 288.059 32.8096 288.616 32.4906C289.179 32.1715 289.602 31.7597 289.886 31.2551C290.176 30.7504 290.321 30.2197 290.321 29.6628V27.7835C290.234 27.8879 290.043 27.9836 289.747 28.0706C289.457 28.1518 289.121 28.2243 288.738 28.2881C288.361 28.3461 287.992 28.3983 287.633 28.4447C287.279 28.4854 286.992 28.5202 286.771 28.5492C286.238 28.6188 285.739 28.7319 285.275 28.8885C284.817 29.0393 284.445 29.2684 284.161 29.5758C283.883 29.8775 283.744 30.2893 283.744 30.8113C283.744 31.5248 284.007 32.0642 284.535 32.4297C285.069 32.7893 285.745 32.9691 286.563 32.9691ZM297.301 26.461V34.5004H295.247V21.1362H297.231V23.2244H297.405C297.718 22.5457 298.194 22.0005 298.832 21.5886C299.47 21.171 300.294 20.9622 301.303 20.9622C302.208 20.9622 303 21.1478 303.678 21.519C304.357 21.8844 304.885 22.4413 305.262 23.1895C305.639 23.932 305.827 24.8717 305.827 26.0086V34.5004H303.774V26.1478C303.774 25.0979 303.501 24.28 302.956 23.6942C302.411 23.1025 301.663 22.8067 300.711 22.8067C300.056 22.8067 299.47 22.9488 298.954 23.2331C298.443 23.5173 298.04 23.932 297.744 24.4772C297.449 25.0225 297.301 25.6837 297.301 26.461ZM314.999 34.5004V16.6815H321.02C322.412 16.6815 323.554 16.9193 324.448 17.3949C325.341 17.8647 326.002 18.5115 326.432 19.3352C326.861 20.1588 327.075 21.0956 327.075 22.1455C327.075 23.1953 326.861 24.1263 326.432 24.9384C326.002 25.7504 325.344 26.3885 324.456 26.8525C323.569 27.3108 322.435 27.5399 321.055 27.5399H316.182V25.5909H320.985C321.936 25.5909 322.702 25.4517 323.282 25.1733C323.868 24.8949 324.291 24.5004 324.552 23.99C324.819 23.4738 324.952 22.8589 324.952 22.1455C324.952 21.432 324.819 20.8085 324.552 20.2748C324.285 19.7412 323.859 19.3294 323.273 19.0393C322.687 18.7435 321.913 18.5956 320.95 18.5956H317.157V34.5004H314.999ZM323.386 26.4958L327.771 34.5004H325.266L320.95 26.4958H323.386ZM333.45 34.8136C332.603 34.8136 331.835 34.6541 331.144 34.3351C330.454 34.0103 329.906 33.5433 329.5 32.9343C329.094 32.3194 328.891 31.577 328.891 30.7069C328.891 29.9413 329.042 29.3206 329.343 28.845C329.645 28.3635 330.048 27.9865 330.553 27.7139C331.057 27.4413 331.614 27.2383 332.223 27.1048C332.838 26.9656 333.456 26.8554 334.077 26.7742C334.889 26.6698 335.547 26.5915 336.052 26.5393C336.562 26.4813 336.933 26.3856 337.165 26.2522C337.403 26.1188 337.522 25.8868 337.522 25.5561V25.4865C337.522 24.6281 337.287 23.961 336.817 23.4854C336.353 23.0097 335.649 22.7719 334.703 22.7719C333.723 22.7719 332.954 22.9865 332.397 23.4158C331.841 23.845 331.449 24.3032 331.223 24.7905L329.274 24.0944C329.622 23.2824 330.086 22.6501 330.666 22.1977C331.252 21.7394 331.89 21.4204 332.58 21.2406C333.276 21.055 333.961 20.9622 334.633 20.9622C335.063 20.9622 335.556 21.0144 336.113 21.1188C336.675 21.2174 337.218 21.4233 337.74 21.7365C338.267 22.0498 338.705 22.5225 339.053 23.1547C339.401 23.787 339.575 24.6339 339.575 25.6953V34.5004H337.522V32.6907H337.418C337.278 32.9807 337.046 33.291 336.722 33.6216C336.397 33.9523 335.965 34.2336 335.425 34.4656C334.886 34.6976 334.227 34.8136 333.45 34.8136ZM333.763 32.9691C334.575 32.9691 335.26 32.8096 335.817 32.4906C336.379 32.1715 336.803 31.7597 337.087 31.2551C337.377 30.7504 337.522 30.2197 337.522 29.6628V27.7835C337.435 27.8879 337.244 27.9836 336.948 28.0706C336.658 28.1518 336.321 28.2243 335.939 28.2881C335.562 28.3461 335.193 28.3983 334.834 28.4447C334.48 28.4854 334.193 28.5202 333.972 28.5492C333.439 28.6188 332.94 28.7319 332.476 28.8885C332.017 29.0393 331.646 29.2684 331.362 29.5758C331.084 29.8775 330.944 30.2893 330.944 30.8113C330.944 31.5248 331.208 32.0642 331.736 32.4297C332.27 32.7893 332.946 32.9691 333.763 32.9691ZM343.292 39.512C342.944 39.512 342.634 39.483 342.361 39.425C342.089 39.3728 341.9 39.3206 341.796 39.2684L342.318 37.4586C342.817 37.5862 343.257 37.6327 343.64 37.5978C344.023 37.563 344.362 37.3919 344.658 37.0845C344.96 36.7829 345.235 36.2927 345.485 35.6141L345.868 34.57L340.926 21.1362H343.153L346.842 31.7858H346.981L350.67 21.1362H352.898L347.225 36.4494C346.97 37.1396 346.654 37.711 346.276 38.1634C345.899 38.6216 345.462 38.961 344.963 39.1814C344.47 39.4018 343.913 39.512 343.292 39.512ZM358.259 34.8136C357.412 34.8136 356.643 34.6541 355.953 34.3351C355.263 34.0103 354.715 33.5433 354.309 32.9343C353.903 32.3194 353.7 31.577 353.7 30.7069C353.7 29.9413 353.851 29.3206 354.152 28.845C354.454 28.3635 354.857 27.9865 355.362 27.7139C355.866 27.4413 356.423 27.2383 357.032 27.1048C357.647 26.9656 358.265 26.8554 358.885 26.7742C359.697 26.6698 360.356 26.5915 360.86 26.5393C361.371 26.4813 361.742 26.3856 361.974 26.2522C362.212 26.1188 362.331 25.8868 362.331 25.5561V25.4865C362.331 24.6281 362.096 23.961 361.626 23.4854C361.162 23.0097 360.457 22.7719 359.512 22.7719C358.531 22.7719 357.763 22.9865 357.206 23.4158C356.649 23.845 356.258 24.3032 356.031 24.7905L354.083 24.0944C354.431 23.2824 354.895 22.6501 355.475 22.1977C356.06 21.7394 356.699 21.4204 357.389 21.2406C358.085 21.055 358.769 20.9622 359.442 20.9622C359.871 20.9622 360.364 21.0144 360.921 21.1188C361.484 21.2174 362.026 21.4233 362.548 21.7365C363.076 22.0498 363.514 22.5225 363.862 23.1547C364.21 23.787 364.384 24.6339 364.384 25.6953V34.5004H362.331V32.6907H362.226C362.087 32.9807 361.855 33.291 361.53 33.6216C361.205 33.9523 360.773 34.2336 360.234 34.4656C359.694 34.6976 359.036 34.8136 358.259 34.8136ZM358.572 32.9691C359.384 32.9691 360.069 32.8096 360.625 32.4906C361.188 32.1715 361.612 31.7597 361.896 31.2551C362.186 30.7504 362.331 30.2197 362.331 29.6628V27.7835C362.244 27.8879 362.052 27.9836 361.757 28.0706C361.466 28.1518 361.13 28.2243 360.747 28.2881C360.37 28.3461 360.002 28.3983 359.642 28.4447C359.288 28.4854 359.001 28.5202 358.781 28.5492C358.247 28.6188 357.748 28.7319 357.284 28.8885C356.826 29.0393 356.455 29.2684 356.171 29.5758C355.892 29.8775 355.753 30.2893 355.753 30.8113C355.753 31.5248 356.017 32.0642 356.545 32.4297C357.078 32.7893 357.754 32.9691 358.572 32.9691Z" fill="black"/>
<path d="M20.9839 47.7771C25.8937 41.6327 37.0914 26.7406 37.0914 18.3758C37.0914 8.23083 28.8606 0 18.7156 0C8.57067 0 0.339844 8.23083 0.339844 18.3758C0.339844 26.7406 11.5376 41.6327 16.4474 47.7771C17.6246 49.2414 19.8067 49.2414 20.9839 47.7771ZM18.7156 12.2505C20.3402 12.2505 21.8982 12.8959 23.0469 14.0446C24.1956 15.1933 24.8409 16.7513 24.8409 18.3758C24.8409 20.0003 24.1956 21.5583 23.0469 22.707C21.8982 23.8557 20.3402 24.5011 18.7156 24.5011C17.0911 24.5011 15.5331 23.8557 14.3844 22.707C13.2357 21.5583 12.5904 20.0003 12.5904 18.3758C12.5904 16.7513 13.2357 15.1933 14.3844 14.0446C15.5331 12.8959 17.0911 12.2505 18.7156 12.2505Z" fill="#DB2777"/>
</svg>
