<svg width="210" height="30" viewBox="0 0 210 30" fill="none" xmlns="http://www.w3.org/2000/svg">
<path d="M65.6877 8.09512V6.18098H79.0519V8.09512H73.4487V23.9999H71.2909V8.09512H65.6877ZM84.8938 24.2784C83.6061 24.2784 82.4953 23.9941 81.5614 23.4257C80.6334 22.8515 79.917 22.051 79.4124 21.0243C78.9135 19.9918 78.6641 18.7911 78.6641 17.4222C78.6641 16.0533 78.9135 14.8468 79.4124 13.8028C79.917 12.7529 80.6189 11.935 81.5179 11.3492C82.4228 10.7575 83.4785 10.4617 84.685 10.4617C85.381 10.4617 86.0684 10.5777 86.747 10.8097C87.4257 11.0417 88.0434 11.4188 88.6003 11.9408C89.1571 12.4571 89.6008 13.1415 89.9315 13.9942C90.2621 14.8468 90.4274 15.8967 90.4274 17.1438V18.0139H80.1258V16.2389H88.3392C88.3392 15.4849 88.1884 14.812 87.8868 14.2204C87.591 13.6287 87.1676 13.1618 86.6165 12.8196C86.0713 12.4774 85.4274 12.3062 84.685 12.3062C83.8671 12.3062 83.1594 12.5093 82.562 12.9153C81.9704 13.3155 81.515 13.8376 81.196 14.4814C80.877 15.1253 80.7175 15.8155 80.7175 16.5522V17.7355C80.7175 18.7447 80.8915 19.6003 81.2395 20.3022C81.5933 20.9982 82.0835 21.529 82.7099 21.8944C83.3364 22.254 84.0643 22.4338 84.8938 22.4338C85.4332 22.4338 85.9205 22.3584 86.3555 22.2076C86.7963 22.051 87.1763 21.819 87.4953 21.5115C87.8143 21.1983 88.0608 20.8097 88.2348 20.3457L90.2186 20.9025C90.0098 21.5754 89.6588 22.167 89.1658 22.6774C88.6728 23.1821 88.0637 23.5765 87.3387 23.8607C86.6136 24.1391 85.7987 24.2784 84.8938 24.2784ZM92.6759 23.9999V10.6357H94.6597V12.7239H94.8337C95.1121 12.0104 95.5616 11.4565 96.1823 11.062C96.8029 10.6618 97.5483 10.4617 98.4183 10.4617C99.3 10.4617 100.034 10.6618 100.62 11.062C101.211 11.4565 101.672 12.0104 102.003 12.7239H102.142C102.484 12.0336 102.998 11.4855 103.682 11.0795C104.367 10.6676 105.187 10.4617 106.145 10.4617C107.339 10.4617 108.317 10.8358 109.077 11.5841C109.837 12.3265 110.216 13.4837 110.216 15.0557V23.9999H108.163V15.0557C108.163 14.0696 107.893 13.3648 107.354 12.9414C106.814 12.518 106.179 12.3062 105.448 12.3062C104.509 12.3062 103.781 12.5905 103.265 13.1589C102.748 13.7216 102.49 14.435 102.49 15.2993V23.9999H100.402V14.8468C100.402 14.087 100.156 13.475 99.6625 13.011C99.1695 12.5412 98.5344 12.3062 97.7571 12.3062C97.2235 12.3062 96.7246 12.4484 96.2606 12.7326C95.8023 13.0168 95.4311 13.4112 95.1469 13.9159C94.8685 14.4147 94.7293 14.9919 94.7293 15.6473V23.9999H92.6759ZM113.096 29.0115V10.6357H115.079V12.7587H115.323C115.474 12.5267 115.683 12.2308 115.95 11.8712C116.222 11.5058 116.611 11.181 117.115 10.8967C117.626 10.6067 118.316 10.4617 119.186 10.4617C120.311 10.4617 121.303 10.743 122.162 11.3057C123.02 11.8683 123.69 12.6659 124.172 13.6984C124.653 14.7308 124.894 15.9489 124.894 17.3526C124.894 18.7679 124.653 19.9947 124.172 21.033C123.69 22.0655 123.023 22.866 122.171 23.4344C121.318 23.997 120.335 24.2784 119.221 24.2784C118.363 24.2784 117.675 24.1362 117.159 23.852C116.643 23.562 116.245 23.2343 115.967 22.8689C115.689 22.4976 115.474 22.1902 115.323 21.9466H115.149V29.0115H113.096ZM115.114 17.3178C115.114 18.3271 115.262 19.2175 115.558 19.9889C115.854 20.7546 116.286 21.3549 116.854 21.79C117.423 22.2192 118.119 22.4338 118.943 22.4338C119.801 22.4338 120.517 22.2076 121.092 21.7552C121.672 21.2969 122.107 20.6821 122.397 19.9106C122.693 19.1334 122.84 18.2691 122.84 17.3178C122.84 16.3782 122.695 15.5313 122.405 14.7772C122.121 14.0174 121.689 13.417 121.109 12.9762C120.535 12.5296 119.813 12.3062 118.943 12.3062C118.107 12.3062 117.405 12.518 116.837 12.9414C116.269 13.359 115.839 13.9449 115.549 14.6989C115.259 15.4472 115.114 16.3202 115.114 17.3178ZM131.084 24.3132C130.237 24.3132 129.468 24.1537 128.778 23.8346C128.088 23.5098 127.54 23.0429 127.134 22.4338C126.728 21.819 126.525 21.0765 126.525 20.2064C126.525 19.4408 126.675 18.8201 126.977 18.3445C127.279 17.8631 127.682 17.486 128.186 17.2134C128.691 16.9408 129.248 16.7378 129.857 16.6044C130.472 16.4652 131.09 16.355 131.71 16.2737C132.522 16.1693 133.181 16.091 133.685 16.0388C134.196 15.9808 134.567 15.8851 134.799 15.7517C135.037 15.6183 135.156 15.3863 135.156 15.0557V14.986C135.156 14.1276 134.921 13.4605 134.451 12.9849C133.987 12.5093 133.282 12.2714 132.337 12.2714C131.356 12.2714 130.588 12.4861 130.031 12.9153C129.474 13.3445 129.083 13.8028 128.856 14.29L126.907 13.5939C127.255 12.7819 127.719 12.1496 128.3 11.6972C128.885 11.239 129.523 10.9199 130.214 10.7401C130.91 10.5545 131.594 10.4617 132.267 10.4617C132.696 10.4617 133.189 10.5139 133.746 10.6183C134.309 10.7169 134.851 10.9228 135.373 11.2361C135.901 11.5493 136.339 12.022 136.687 12.6543C137.035 13.2865 137.209 14.1334 137.209 15.1949V23.9999H135.156V22.1902H135.051C134.912 22.4802 134.68 22.7905 134.355 23.1212C134.03 23.4518 133.598 23.7331 133.059 23.9651C132.519 24.1972 131.861 24.3132 131.084 24.3132ZM131.397 22.4686C132.209 22.4686 132.893 22.3091 133.45 21.9901C134.013 21.6711 134.436 21.2592 134.721 20.7546C135.011 20.25 135.156 19.7192 135.156 19.1624V17.283C135.069 17.3874 134.877 17.4831 134.581 17.5701C134.291 17.6514 133.955 17.7239 133.572 17.7877C133.195 17.8457 132.827 17.8979 132.467 17.9443C132.113 17.9849 131.826 18.0197 131.606 18.0487C131.072 18.1183 130.573 18.2314 130.109 18.388C129.651 18.5388 129.28 18.7679 128.996 19.0754C128.717 19.377 128.578 19.7888 128.578 20.3109C128.578 21.0243 128.842 21.5638 129.37 21.9292C129.903 22.2888 130.579 22.4686 131.397 22.4686ZM145.894 10.6357V12.3759H138.968V10.6357H145.894ZM140.987 7.43387H143.04V20.1716C143.04 20.7517 143.124 21.1867 143.292 21.4767C143.466 21.761 143.687 21.9524 143.954 22.051C144.226 22.1438 144.513 22.1902 144.815 22.1902C145.041 22.1902 145.227 22.1786 145.372 22.1554C145.517 22.1264 145.633 22.1032 145.72 22.0858L146.137 23.9303C145.998 23.9825 145.804 24.0347 145.555 24.0869C145.305 24.145 144.989 24.174 144.606 24.174C144.026 24.174 143.458 24.0492 142.901 23.7998C142.35 23.5504 141.892 23.1705 141.526 22.66C141.166 22.1496 140.987 21.5057 140.987 20.7285V7.43387ZM153.427 8.09512V6.18098H166.792V8.09512H161.188V23.9999H159.031V8.09512H153.427ZM168.968 23.9999V10.6357H171.022V23.9999H168.968ZM170.012 8.40835C169.612 8.40835 169.267 8.27204 168.977 7.99942C168.693 7.7268 168.551 7.39907 168.551 7.01624C168.551 6.63341 168.693 6.30569 168.977 6.03307C169.267 5.76045 169.612 5.62414 170.012 5.62414C170.413 5.62414 170.755 5.76045 171.039 6.03307C171.329 6.30569 171.474 6.63341 171.474 7.01624C171.474 7.39907 171.329 7.7268 171.039 7.99942C170.755 8.27204 170.413 8.40835 170.012 8.40835ZM178.954 24.2784C177.84 24.2784 176.857 23.997 176.004 23.4344C175.152 22.866 174.485 22.0655 174.003 21.033C173.522 19.9947 173.281 18.7679 173.281 17.3526C173.281 15.9489 173.522 14.7308 174.003 13.6984C174.485 12.6659 175.155 11.8683 176.013 11.3057C176.872 10.743 177.863 10.4617 178.989 10.4617C179.859 10.4617 180.546 10.6067 181.051 10.8967C181.561 11.181 181.95 11.5058 182.217 11.8712C182.489 12.2308 182.701 12.5267 182.852 12.7587H183.026V6.18098H185.079V23.9999H183.095V21.9466H182.852C182.701 22.1902 182.486 22.4976 182.208 22.8689C181.929 23.2343 181.532 23.562 181.016 23.852C180.5 24.1362 179.812 24.2784 178.954 24.2784ZM179.232 22.4338C180.056 22.4338 180.752 22.2192 181.32 21.79C181.889 21.3549 182.321 20.7546 182.617 19.9889C182.913 19.2175 183.061 18.3271 183.061 17.3178C183.061 16.3202 182.916 15.4472 182.626 14.6989C182.336 13.9449 181.906 13.359 181.338 12.9414C180.769 12.518 180.068 12.3062 179.232 12.3062C178.362 12.3062 177.637 12.5296 177.057 12.9762C176.483 13.417 176.051 14.0174 175.761 14.7772C175.477 15.5313 175.334 16.3782 175.334 17.3178C175.334 18.2691 175.479 19.1334 175.769 19.9106C176.065 20.6821 176.5 21.2969 177.075 21.7552C177.655 22.2076 178.374 22.4338 179.232 22.4338ZM196.672 18.5359V10.6357H198.726V23.9999H196.672V21.7378H196.533C196.22 22.4164 195.732 22.9936 195.071 23.4692C194.41 23.939 193.575 24.174 192.565 24.174C191.73 24.174 190.988 23.9912 190.338 23.6258C189.688 23.2546 189.178 22.6977 188.807 21.9553C188.436 21.207 188.25 20.2645 188.25 19.1276V10.6357H190.303V18.9884C190.303 19.9628 190.576 20.7401 191.121 21.3201C191.672 21.9002 192.374 22.1902 193.227 22.1902C193.737 22.1902 194.256 22.0597 194.784 21.7987C195.318 21.5377 195.764 21.1374 196.124 20.598C196.489 20.0585 196.672 19.3712 196.672 18.5359ZM201.611 23.9999V10.6357H203.595V12.6543H203.734C203.978 11.993 204.419 11.4565 205.057 11.0446C205.695 10.6328 206.414 10.4269 207.215 10.4269C207.365 10.4269 207.554 10.4298 207.78 10.4356C208.006 10.4414 208.177 10.4501 208.293 10.4617V12.5499C208.224 12.5325 208.064 12.5064 207.815 12.4716C207.571 12.431 207.313 12.4107 207.041 12.4107C206.391 12.4107 205.811 12.547 205.3 12.8196C204.796 13.0864 204.396 13.4576 204.1 13.9333C203.81 14.4031 203.665 14.9396 203.665 15.5429V23.9999H201.611Z" fill="black"/>
<g clip-path="url(#clip0_119_549)">
<path d="M1.83758 1.83748C2.85399 1.83748 3.67516 2.65865 3.67516 3.67506V18.3757H16.5382V9.1878C16.5382 8.17139 17.3594 7.35022 18.3758 7.35022H31.2389C34.2824 7.35022 36.7516 9.81947 36.7516 12.863V25.726C36.7516 26.7424 35.9304 27.5636 34.914 27.5636C33.8976 27.5636 33.0764 26.7424 33.0764 25.726V23.8884H20.2134H18.3758H3.67516V25.726C3.67516 26.7424 2.85399 27.5636 1.83758 27.5636C0.821169 27.5636 0 26.7424 0 25.726V3.67506C0 2.65865 0.821169 1.83748 1.83758 1.83748ZM10.1067 7.35022C11.3251 7.35022 12.4936 7.83422 13.3551 8.69576C14.2166 9.55729 14.7006 10.7258 14.7006 11.9442C14.7006 13.1626 14.2166 14.3311 13.3551 15.1926C12.4936 16.0541 11.3251 16.5381 10.1067 16.5381C8.8883 16.5381 7.71981 16.0541 6.85828 15.1926C5.99675 14.3311 5.51274 13.1626 5.51274 11.9442C5.51274 10.7258 5.99675 9.55729 6.85828 8.69576C7.71981 7.83422 8.8883 7.35022 10.1067 7.35022Z" fill="#DB2777"/>
</g>
<defs>
<clipPath id="clip0_119_549">
<rect width="36.7516" height="29.4013" fill="white"/>
</clipPath>
</defs>
</svg>
