<svg width="240" height="37" viewBox="0 0 240 37" fill="none" xmlns="http://www.w3.org/2000/svg">
<path d="M76.6622 27.5002V9.68121H78.8199V25.586H87.103V27.5002H76.6622ZM94.8938 27.7786C93.6061 27.7786 92.4953 27.4944 91.5614 26.9259C90.6334 26.3517 89.917 25.5512 89.4124 24.5245C88.9135 23.4921 88.6641 22.2914 88.6641 20.9225C88.6641 19.5536 88.9135 18.3471 89.4124 17.303C89.917 16.2531 90.6189 15.4352 91.5179 14.8494C92.4228 14.2578 93.4785 13.9619 94.685 13.9619C95.381 13.9619 96.0684 14.0779 96.747 14.31C97.4257 14.542 98.0434 14.919 98.6003 15.441C99.1571 15.9573 99.6008 16.6417 99.9315 17.4944C100.262 18.3471 100.427 19.3969 100.427 20.644V21.5141H90.1258V19.7392H98.3392C98.3392 18.9851 98.1884 18.3123 97.8868 17.7206C97.591 17.129 97.1676 16.662 96.6165 16.3198C96.0713 15.9776 95.4274 15.8065 94.685 15.8065C93.8671 15.8065 93.1594 16.0095 92.562 16.4155C91.9704 16.8158 91.515 17.3378 91.196 17.9816C90.877 18.6255 90.7175 19.3157 90.7175 20.0524V21.2357C90.7175 22.245 90.8915 23.1005 91.2395 23.8024C91.5933 24.4984 92.0835 25.0292 92.7099 25.3946C93.3364 25.7542 94.0643 25.934 94.8938 25.934C95.4332 25.934 95.9205 25.8586 96.3555 25.7078C96.7963 25.5512 97.1763 25.3192 97.4953 25.0118C97.8143 24.6986 98.0608 24.3099 98.2348 23.8459L100.219 24.4027C100.01 25.0756 99.6588 25.6672 99.1658 26.1777C98.6728 26.6823 98.0637 27.0767 97.3387 27.361C96.6136 27.6394 95.7987 27.7786 94.8938 27.7786ZM102.676 27.5002V14.1359H104.66V16.2241H104.834C105.112 15.5107 105.562 14.9567 106.182 14.5623C106.803 14.162 107.548 13.9619 108.418 13.9619C109.3 13.9619 110.034 14.162 110.62 14.5623C111.211 14.9567 111.672 15.5107 112.003 16.2241H112.142C112.484 15.5339 112.998 14.9857 113.682 14.5797C114.367 14.1678 115.187 13.9619 116.145 13.9619C117.339 13.9619 118.317 14.3361 119.077 15.0843C119.837 15.8268 120.216 16.984 120.216 18.5559V27.5002H118.163V18.5559C118.163 17.5698 117.893 16.8651 117.354 16.4416C116.814 16.0182 116.179 15.8065 115.448 15.8065C114.509 15.8065 113.781 16.0907 113.265 16.6591C112.748 17.2218 112.49 17.9352 112.49 18.7995V27.5002H110.402V18.3471C110.402 17.5872 110.156 16.9753 109.663 16.5112C109.17 16.0414 108.534 15.8065 107.757 15.8065C107.223 15.8065 106.725 15.9486 106.261 16.2328C105.802 16.517 105.431 16.9115 105.147 17.4161C104.868 17.9149 104.729 18.4921 104.729 19.1475V27.5002H102.676ZM127.028 27.8134C126.182 27.8134 125.413 27.6539 124.723 27.3349C124.033 27.01 123.484 26.5431 123.078 25.934C122.672 25.3192 122.469 24.5767 122.469 23.7067C122.469 22.941 122.62 22.3204 122.922 21.8447C123.223 21.3633 123.626 20.9863 124.131 20.7136C124.636 20.441 125.193 20.238 125.802 20.1046C126.416 19.9654 127.034 19.8552 127.655 19.774C128.467 19.6696 129.125 19.5913 129.63 19.5391C130.14 19.4811 130.512 19.3853 130.744 19.2519C130.981 19.1185 131.1 18.8865 131.1 18.5559V18.4863C131.1 17.6278 130.865 16.9608 130.396 16.4851C129.932 16.0095 129.227 15.7717 128.281 15.7717C127.301 15.7717 126.533 15.9863 125.976 16.4155C125.419 16.8448 125.027 17.303 124.801 17.7902L122.852 17.0942C123.2 16.2821 123.664 15.6499 124.244 15.1974C124.83 14.7392 125.468 14.4202 126.158 14.2404C126.854 14.0547 127.539 13.9619 128.212 13.9619C128.641 13.9619 129.134 14.0141 129.691 14.1185C130.253 14.2172 130.796 14.4231 131.318 14.7363C131.846 15.0495 132.284 15.5223 132.632 16.1545C132.98 16.7867 133.154 17.6336 133.154 18.6951V27.5002H131.1V25.6904H130.996C130.857 25.9805 130.625 26.2908 130.3 26.6214C129.975 26.952 129.543 27.2333 129.003 27.4654C128.464 27.6974 127.806 27.8134 127.028 27.8134ZM127.342 25.9689C128.154 25.9689 128.838 25.8093 129.395 25.4903C129.958 25.1713 130.381 24.7595 130.665 24.2548C130.955 23.7502 131.1 23.2194 131.1 22.6626V20.7833C131.013 20.8877 130.822 20.9834 130.526 21.0704C130.236 21.1516 129.9 21.2241 129.517 21.2879C129.14 21.3459 128.771 21.3981 128.412 21.4445C128.058 21.4851 127.771 21.5199 127.55 21.5489C127.017 21.6185 126.518 21.7316 126.054 21.8882C125.596 22.0391 125.225 22.2682 124.94 22.5756C124.662 22.8772 124.523 23.289 124.523 23.8111C124.523 24.5245 124.787 25.064 125.314 25.4294C125.848 25.789 126.524 25.9689 127.342 25.9689ZM136.026 27.5002V14.1359H138.01V16.1545H138.149C138.393 15.4933 138.834 14.9567 139.472 14.5449C140.11 14.133 140.829 13.9271 141.63 13.9271C141.781 13.9271 141.969 13.93 142.195 13.9358C142.421 13.9416 142.593 13.9503 142.709 13.9619V16.0501C142.639 16.0327 142.479 16.0066 142.23 15.9718C141.986 15.9312 141.728 15.9109 141.456 15.9109C140.806 15.9109 140.226 16.0472 139.716 16.3198C139.211 16.5866 138.811 16.9579 138.515 17.4335C138.225 17.9033 138.08 18.4399 138.08 19.0431V27.5002H136.026ZM144.268 27.5002V14.1359H146.321V27.5002H144.268ZM145.312 11.9086C144.911 11.9086 144.566 11.7723 144.276 11.4996C143.992 11.227 143.85 10.8993 143.85 10.5165C143.85 10.1336 143.992 9.80592 144.276 9.53329C144.566 9.26067 144.911 9.12436 145.312 9.12436C145.712 9.12436 146.054 9.26067 146.338 9.53329C146.628 9.80592 146.773 10.1336 146.773 10.5165C146.773 10.8993 146.628 11.227 146.338 11.4996C146.054 11.7723 145.712 11.9086 145.312 11.9086ZM155.501 27.5002V9.68121H161.522C162.92 9.68121 164.063 9.93353 164.95 10.4382C165.843 10.937 166.504 11.6128 166.934 12.4654C167.363 13.3181 167.578 14.2694 167.578 15.3192C167.578 16.3691 167.363 17.3233 166.934 18.1818C166.51 19.0402 165.855 19.7247 164.967 20.2351C164.08 20.7398 162.943 20.9921 161.557 20.9921H157.241V19.0779H161.487C162.444 19.0779 163.213 18.9126 163.793 18.582C164.373 18.2514 164.793 17.8047 165.054 17.2421C165.321 16.6736 165.455 16.0327 165.455 15.3192C165.455 14.6058 165.321 13.9677 165.054 13.4051C164.793 12.8424 164.37 12.4016 163.784 12.0826C163.198 11.7578 162.421 11.5954 161.452 11.5954H157.659V27.5002H155.501ZM173.833 27.8134C172.986 27.8134 172.217 27.6539 171.527 27.3349C170.837 27.01 170.289 26.5431 169.883 25.934C169.477 25.3192 169.274 24.5767 169.274 23.7067C169.274 22.941 169.424 22.3204 169.726 21.8447C170.028 21.3633 170.431 20.9863 170.935 20.7136C171.44 20.441 171.997 20.238 172.606 20.1046C173.221 19.9654 173.839 19.8552 174.459 19.774C175.271 19.6696 175.93 19.5913 176.434 19.5391C176.945 19.4811 177.316 19.3853 177.548 19.2519C177.786 19.1185 177.905 18.8865 177.905 18.5559V18.4863C177.905 17.6278 177.67 16.9608 177.2 16.4851C176.736 16.0095 176.031 15.7717 175.086 15.7717C174.105 15.7717 173.337 15.9863 172.78 16.4155C172.223 16.8448 171.832 17.303 171.605 17.7902L169.656 17.0942C170.004 16.2821 170.468 15.6499 171.049 15.1974C171.634 14.7392 172.272 14.4202 172.963 14.2404C173.659 14.0547 174.343 13.9619 175.016 13.9619C175.445 13.9619 175.938 14.0141 176.495 14.1185C177.058 14.2172 177.6 14.4231 178.122 14.7363C178.65 15.0495 179.088 15.5223 179.436 16.1545C179.784 16.7867 179.958 17.6336 179.958 18.6951V27.5002H177.905V25.6904H177.8C177.661 25.9805 177.429 26.2908 177.104 26.6214C176.779 26.952 176.347 27.2333 175.808 27.4654C175.268 27.6974 174.61 27.8134 173.833 27.8134ZM174.146 25.9689C174.958 25.9689 175.642 25.8093 176.199 25.4903C176.762 25.1713 177.185 24.7595 177.47 24.2548C177.76 23.7502 177.905 23.2194 177.905 22.6626V20.7833C177.818 20.8877 177.626 20.9834 177.33 21.0704C177.04 21.1516 176.704 21.2241 176.321 21.2879C175.944 21.3459 175.576 21.3981 175.216 21.4445C174.862 21.4851 174.575 21.5199 174.355 21.5489C173.821 21.6185 173.322 21.7316 172.858 21.8882C172.4 22.0391 172.029 22.2682 171.745 22.5756C171.466 22.8772 171.327 23.289 171.327 23.8111C171.327 24.5245 171.591 25.064 172.119 25.4294C172.652 25.789 173.328 25.9689 174.146 25.9689ZM184.745 22.6278L184.71 20.0872H185.128L190.975 14.1359H193.515L187.286 20.4352H187.112L184.745 22.6278ZM182.831 27.5002V9.68121H184.884V27.5002H182.831ZM191.323 27.5002L186.102 20.8877L187.564 19.4608L193.933 27.5002H191.323ZM199.216 27.8134C198.369 27.8134 197.6 27.6539 196.91 27.3349C196.22 27.01 195.672 26.5431 195.266 25.934C194.86 25.3192 194.657 24.5767 194.657 23.7067C194.657 22.941 194.807 22.3204 195.109 21.8447C195.411 21.3633 195.814 20.9863 196.318 20.7136C196.823 20.441 197.38 20.238 197.989 20.1046C198.604 19.9654 199.221 19.8552 199.842 19.774C200.654 19.6696 201.313 19.5913 201.817 19.5391C202.328 19.4811 202.699 19.3853 202.931 19.2519C203.169 19.1185 203.288 18.8865 203.288 18.5559V18.4863C203.288 17.6278 203.053 16.9608 202.583 16.4851C202.119 16.0095 201.414 15.7717 200.469 15.7717C199.488 15.7717 198.72 15.9863 198.163 16.4155C197.606 16.8448 197.215 17.303 196.988 17.7902L195.039 17.0942C195.387 16.2821 195.851 15.6499 196.431 15.1974C197.017 14.7392 197.655 14.4202 198.346 14.2404C199.042 14.0547 199.726 13.9619 200.399 13.9619C200.828 13.9619 201.321 14.0141 201.878 14.1185C202.441 14.2172 202.983 14.4231 203.505 14.7363C204.033 15.0495 204.471 15.5223 204.819 16.1545C205.167 16.7867 205.341 17.6336 205.341 18.6951V27.5002H203.288V25.6904H203.183C203.044 25.9805 202.812 26.2908 202.487 26.6214C202.162 26.952 201.73 27.2333 201.191 27.4654C200.651 27.6974 199.993 27.8134 199.216 27.8134ZM199.529 25.9689C200.341 25.9689 201.025 25.8093 201.582 25.4903C202.145 25.1713 202.568 24.7595 202.853 24.2548C203.143 23.7502 203.288 23.2194 203.288 22.6626V20.7833C203.201 20.8877 203.009 20.9834 202.713 21.0704C202.423 21.1516 202.087 21.2241 201.704 21.2879C201.327 21.3459 200.959 21.3981 200.599 21.4445C200.245 21.4851 199.958 21.5199 199.738 21.5489C199.204 21.6185 198.705 21.7316 198.241 21.8882C197.783 22.0391 197.412 22.2682 197.128 22.5756C196.849 22.8772 196.71 23.289 196.71 23.8111C196.71 24.5245 196.974 25.064 197.502 25.4294C198.035 25.789 198.711 25.9689 199.529 25.9689ZM208.214 27.5002V14.1359H210.267V27.5002H208.214ZM209.258 11.9086C208.858 11.9086 208.512 11.7723 208.222 11.4996C207.938 11.227 207.796 10.8993 207.796 10.5165C207.796 10.1336 207.938 9.80592 208.222 9.53329C208.512 9.26067 208.858 9.12436 209.258 9.12436C209.658 9.12436 210 9.26067 210.284 9.53329C210.575 9.80592 210.72 10.1336 210.72 10.5165C210.72 10.8993 210.575 11.227 210.284 11.4996C210 11.7723 209.658 11.9086 209.258 11.9086ZM217.086 27.8134C216.239 27.8134 215.47 27.6539 214.78 27.3349C214.09 27.01 213.542 26.5431 213.136 25.934C212.729 25.3192 212.526 24.5767 212.526 23.7067C212.526 22.941 212.677 22.3204 212.979 21.8447C213.281 21.3633 213.684 20.9863 214.188 20.7136C214.693 20.441 215.25 20.238 215.859 20.1046C216.474 19.9654 217.091 19.8552 217.712 19.774C218.524 19.6696 219.182 19.5913 219.687 19.5391C220.198 19.4811 220.569 19.3853 220.801 19.2519C221.039 19.1185 221.158 18.8865 221.158 18.5559V18.4863C221.158 17.6278 220.923 16.9608 220.453 16.4851C219.989 16.0095 219.284 15.7717 218.338 15.7717C217.358 15.7717 216.59 15.9863 216.033 16.4155C215.476 16.8448 215.084 17.303 214.858 17.7902L212.909 17.0942C213.257 16.2821 213.721 15.6499 214.301 15.1974C214.887 14.7392 215.525 14.4202 216.216 14.2404C216.912 14.0547 217.596 13.9619 218.269 13.9619C218.698 13.9619 219.191 14.0141 219.748 14.1185C220.311 14.2172 220.853 14.4231 221.375 14.7363C221.903 15.0495 222.341 15.5223 222.689 16.1545C223.037 16.7867 223.211 17.6336 223.211 18.6951V27.5002H221.158V25.6904H221.053C220.914 25.9805 220.682 26.2908 220.357 26.6214C220.032 26.952 219.6 27.2333 219.061 27.4654C218.521 27.6974 217.863 27.8134 217.086 27.8134ZM217.399 25.9689C218.211 25.9689 218.895 25.8093 219.452 25.4903C220.015 25.1713 220.438 24.7595 220.722 24.2548C221.013 23.7502 221.158 23.2194 221.158 22.6626V20.7833C221.071 20.8877 220.879 20.9834 220.583 21.0704C220.293 21.1516 219.957 21.2241 219.574 21.2879C219.197 21.3459 218.829 21.3981 218.469 21.4445C218.115 21.4851 217.828 21.5199 217.608 21.5489C217.074 21.6185 216.575 21.7316 216.111 21.8882C215.653 22.0391 215.282 22.2682 214.997 22.5756C214.719 22.8772 214.58 23.289 214.58 23.8111C214.58 24.5245 214.844 25.064 215.372 25.4294C215.905 25.789 216.581 25.9689 217.399 25.9689ZM228.137 19.4608V27.5002H226.084V14.1359H228.067V16.2241H228.241C228.555 15.5455 229.03 15.0002 229.668 14.5884C230.306 14.1707 231.13 13.9619 232.139 13.9619C233.044 13.9619 233.836 14.1475 234.515 14.5188C235.193 14.8842 235.721 15.441 236.098 16.1893C236.475 16.9318 236.664 17.8714 236.664 19.0083V27.5002H234.61V19.1475C234.61 18.0976 234.338 17.2798 233.792 16.6939C233.247 16.1023 232.499 15.8065 231.548 15.8065C230.892 15.8065 230.306 15.9486 229.79 16.2328C229.28 16.517 228.877 16.9318 228.581 17.477C228.285 18.0222 228.137 18.6835 228.137 19.4608Z" fill="black"/>
<g clip-path="url(#clip0_119_568)">
<path d="M2.29698 2.297H34.4546C35.7251 2.297 36.7516 3.32346 36.7516 4.59397V6.89095C36.7516 8.16146 35.7251 9.18792 34.4546 9.18792H2.29698C1.02646 9.18792 0 8.16146 0 6.89095V4.59397C0 3.32346 1.02646 2.297 2.29698 2.297ZM2.29698 11.4849H34.4546V29.8607C34.4546 32.3946 32.3945 34.4547 29.8607 34.4547H6.89093C4.35708 34.4547 2.29698 32.3946 2.29698 29.8607V11.4849ZM11.4849 17.2273C11.4849 17.859 12.0017 18.3758 12.6334 18.3758H24.1182C24.7499 18.3758 25.2667 17.859 25.2667 17.2273C25.2667 16.5957 24.7499 16.0789 24.1182 16.0789H12.6334C12.0017 16.0789 11.4849 16.5957 11.4849 17.2273Z" fill="#DB2777"/>
</g>
<defs>
<clipPath id="clip0_119_568">
<rect width="36.7516" height="36.7516" fill="white"/>
</clipPath>
</defs>
</svg>
