<svg width="307" height="43" viewBox="0 0 307 43" fill="none" xmlns="http://www.w3.org/2000/svg">
<path d="M96.6617 29.2502V11.4313H98.8194V27.3361H107.102V29.2502H96.6617ZM113.223 29.5635C112.376 29.5635 111.607 29.404 110.917 29.0849C110.227 28.7601 109.679 28.2932 109.273 27.6841C108.867 27.0693 108.664 26.3268 108.664 25.4568C108.664 24.6911 108.814 24.0704 109.116 23.5948C109.418 23.1134 109.821 22.7363 110.325 22.4637C110.83 22.1911 111.387 21.9881 111.996 21.8547C112.611 21.7155 113.229 21.6053 113.849 21.5241C114.661 21.4196 115.32 21.3413 115.824 21.2891C116.335 21.2311 116.706 21.1354 116.938 21.002C117.176 20.8686 117.295 20.6366 117.295 20.306V20.2364C117.295 19.3779 117.06 18.7108 116.59 18.2352C116.126 17.7596 115.421 17.5217 114.476 17.5217C113.495 17.5217 112.727 17.7364 112.17 18.1656C111.613 18.5948 111.222 19.0531 110.995 19.5403L109.046 18.8442C109.394 18.0322 109.859 17.3999 110.439 16.9475C111.024 16.4893 111.662 16.1702 112.353 15.9904C113.049 15.8048 113.733 15.712 114.406 15.712C114.835 15.712 115.328 15.7642 115.885 15.8686C116.448 15.9672 116.99 16.1731 117.512 16.4864C118.04 16.7996 118.478 17.2723 118.826 17.9046C119.174 18.5368 119.348 19.3837 119.348 20.4452V29.2502H117.295V27.4405H117.19C117.051 27.7305 116.819 28.0409 116.494 28.3715C116.169 28.7021 115.737 28.9834 115.198 29.2154C114.658 29.4475 114 29.5635 113.223 29.5635ZM113.536 27.7189C114.348 27.7189 115.033 27.5594 115.589 27.2404C116.152 26.9214 116.575 26.5095 116.86 26.0049C117.15 25.5003 117.295 24.9695 117.295 24.4127V22.5333C117.208 22.6377 117.016 22.7334 116.72 22.8205C116.43 22.9017 116.094 22.9742 115.711 23.038C115.334 23.096 114.966 23.1482 114.606 23.1946C114.252 23.2352 113.965 23.27 113.745 23.299C113.211 23.3686 112.712 23.4817 112.248 23.6383C111.79 23.7891 111.419 24.0182 111.135 24.3257C110.856 24.6273 110.717 25.0391 110.717 25.5612C110.717 26.2746 110.981 26.8141 111.509 27.1795C112.042 27.5391 112.718 27.7189 113.536 27.7189ZM122.221 34.2618V15.886H124.205V18.009H124.448C124.599 17.777 124.808 17.4811 125.075 17.1215C125.347 16.7561 125.736 16.4313 126.241 16.147C126.751 15.857 127.441 15.712 128.311 15.712C129.437 15.712 130.428 15.9933 131.287 16.556C132.145 17.1186 132.815 17.9162 133.297 18.9487C133.778 19.9811 134.019 21.1992 134.019 22.6029C134.019 24.0182 133.778 25.245 133.297 26.2833C132.815 27.3158 132.148 28.1163 131.296 28.6847C130.443 29.2473 129.46 29.5287 128.346 29.5287C127.488 29.5287 126.8 29.3866 126.284 29.1023C125.768 28.8123 125.37 28.4846 125.092 28.1192C124.814 27.7479 124.599 27.4405 124.448 27.1969H124.274V34.2618H122.221ZM124.239 22.5681C124.239 23.5774 124.387 24.4678 124.683 25.2392C124.979 26.0049 125.411 26.6052 125.979 27.0403C126.548 27.4695 127.244 27.6841 128.068 27.6841C128.926 27.6841 129.642 27.4579 130.217 27.0055C130.797 26.5472 131.232 25.9324 131.522 25.1609C131.818 24.3837 131.966 23.5194 131.966 22.5681C131.966 21.6285 131.821 20.7816 131.531 20.0275C131.246 19.2677 130.814 18.6673 130.234 18.2265C129.66 17.7799 128.938 17.5566 128.068 17.5566C127.232 17.5566 126.531 17.7683 125.962 18.1917C125.394 18.6093 124.964 19.1952 124.674 19.9492C124.384 20.6975 124.239 21.5705 124.239 22.5681ZM140.209 29.5635C139.362 29.5635 138.593 29.404 137.903 29.0849C137.213 28.7601 136.665 28.2932 136.259 27.6841C135.853 27.0693 135.65 26.3268 135.65 25.4568C135.65 24.6911 135.8 24.0704 136.102 23.5948C136.404 23.1134 136.807 22.7363 137.311 22.4637C137.816 22.1911 138.373 21.9881 138.982 21.8547C139.597 21.7155 140.215 21.6053 140.835 21.5241C141.647 21.4196 142.306 21.3413 142.81 21.2891C143.321 21.2311 143.692 21.1354 143.924 21.002C144.162 20.8686 144.281 20.6366 144.281 20.306V20.2364C144.281 19.3779 144.046 18.7108 143.576 18.2352C143.112 17.7596 142.407 17.5217 141.462 17.5217C140.481 17.5217 139.713 17.7364 139.156 18.1656C138.599 18.5948 138.208 19.0531 137.981 19.5403L136.032 18.8442C136.381 18.0322 136.845 17.3999 137.425 16.9475C138.01 16.4893 138.648 16.1702 139.339 15.9904C140.035 15.8048 140.719 15.712 141.392 15.712C141.821 15.712 142.314 15.7642 142.871 15.8686C143.434 15.9672 143.976 16.1731 144.498 16.4864C145.026 16.7996 145.464 17.2723 145.812 17.9046C146.16 18.5368 146.334 19.3837 146.334 20.4452V29.2502H144.281V27.4405H144.176C144.037 27.7305 143.805 28.0409 143.48 28.3715C143.155 28.7021 142.723 28.9834 142.184 29.2154C141.644 29.4475 140.986 29.5635 140.209 29.5635ZM140.522 27.7189C141.334 27.7189 142.019 27.5594 142.575 27.2404C143.138 26.9214 143.561 26.5095 143.846 26.0049C144.136 25.5003 144.281 24.9695 144.281 24.4127V22.5333C144.194 22.6377 144.002 22.7334 143.706 22.8205C143.416 22.9017 143.08 22.9742 142.697 23.038C142.32 23.096 141.952 23.1482 141.592 23.1946C141.238 23.2352 140.951 23.27 140.731 23.299C140.197 23.3686 139.698 23.4817 139.234 23.6383C138.776 23.7891 138.405 24.0182 138.121 24.3257C137.842 24.6273 137.703 25.0391 137.703 25.5612C137.703 26.2746 137.967 26.8141 138.495 27.1795C139.028 27.5391 139.704 27.7189 140.522 27.7189ZM151.26 21.2108V29.2502H149.207V15.886H151.191V17.9742H151.365C151.678 17.2955 152.153 16.7503 152.792 16.3385C153.43 15.9208 154.253 15.712 155.263 15.712C156.167 15.712 156.959 15.8976 157.638 16.2689C158.316 16.6343 158.844 17.1911 159.221 17.9394C159.598 18.6818 159.787 19.6215 159.787 20.7584V29.2502H157.734V20.8976C157.734 19.8477 157.461 19.0299 156.916 18.444C156.37 17.8524 155.622 17.5566 154.671 17.5566C154.015 17.5566 153.43 17.6987 152.913 17.9829C152.403 18.2671 152 18.6818 151.704 19.2271C151.408 19.7723 151.26 20.4336 151.26 21.2108ZM168.058 34.5402C167.067 34.5402 166.214 34.4126 165.5 34.1574C164.787 33.908 164.192 33.5774 163.717 33.1655C163.247 32.7595 162.873 32.3245 162.594 31.8604L164.23 30.712C164.416 30.9556 164.651 31.234 164.935 31.5472C165.219 31.8662 165.608 32.1418 166.101 32.3738C166.6 32.6116 167.252 32.7305 168.058 32.7305C169.137 32.7305 170.028 32.4695 170.729 31.9475C171.431 31.4254 171.782 30.6075 171.782 29.4939V26.7793H171.608C171.457 27.0229 171.243 27.3245 170.964 27.6841C170.692 28.038 170.297 28.3541 169.781 28.6325C169.271 28.9051 168.58 29.0414 167.71 29.0414C166.631 29.0414 165.663 28.7862 164.804 28.2758C163.952 27.7653 163.276 27.0229 162.777 26.0484C162.284 25.0739 162.038 23.8906 162.038 22.4985C162.038 21.1296 162.278 19.9376 162.76 18.9226C163.241 17.9017 163.911 17.1128 164.77 16.556C165.628 15.9933 166.62 15.712 167.745 15.712C168.615 15.712 169.305 15.857 169.816 16.147C170.332 16.4313 170.727 16.7561 170.999 17.1215C171.278 17.4811 171.492 17.777 171.643 18.009H171.852V15.886H173.836V29.6331C173.836 30.7816 173.575 31.7154 173.053 32.4347C172.536 33.1597 171.84 33.6905 170.964 34.0269C170.094 34.3691 169.126 34.5402 168.058 34.5402ZM167.989 27.1969C168.812 27.1969 169.509 27.0084 170.077 26.6313C170.645 26.2543 171.078 25.712 171.373 25.0043C171.669 24.2967 171.817 23.4498 171.817 22.4637C171.817 21.5009 171.672 20.6511 171.382 19.9144C171.092 19.1778 170.663 18.6006 170.094 18.183C169.526 17.7654 168.824 17.5566 167.989 17.5566C167.119 17.5566 166.394 17.777 165.814 18.2178C165.239 18.6586 164.807 19.2503 164.517 19.9927C164.233 20.7352 164.091 21.5589 164.091 22.4637C164.091 23.3918 164.236 24.2126 164.526 24.926C164.822 25.6337 165.257 26.1905 165.831 26.5965C166.411 26.9968 167.13 27.1969 167.989 27.1969ZM180.652 29.5635C179.805 29.5635 179.037 29.404 178.346 29.0849C177.656 28.7601 177.108 28.2932 176.702 27.6841C176.296 27.0693 176.093 26.3268 176.093 25.4568C176.093 24.6911 176.244 24.0704 176.545 23.5948C176.847 23.1134 177.25 22.7363 177.755 22.4637C178.259 22.1911 178.816 21.9881 179.425 21.8547C180.04 21.7155 180.658 21.6053 181.278 21.5241C182.09 21.4196 182.749 21.3413 183.253 21.2891C183.764 21.2311 184.135 21.1354 184.367 21.002C184.605 20.8686 184.724 20.6366 184.724 20.306V20.2364C184.724 19.3779 184.489 18.7108 184.019 18.2352C183.555 17.7596 182.85 17.5217 181.905 17.5217C180.925 17.5217 180.156 17.7364 179.599 18.1656C179.042 18.5948 178.651 19.0531 178.425 19.5403L176.476 18.8442C176.824 18.0322 177.288 17.3999 177.868 16.9475C178.454 16.4893 179.092 16.1702 179.782 15.9904C180.478 15.8048 181.162 15.712 181.835 15.712C182.265 15.712 182.758 15.7642 183.314 15.8686C183.877 15.9672 184.419 16.1731 184.941 16.4864C185.469 16.7996 185.907 17.2723 186.255 17.9046C186.603 18.5368 186.777 19.3837 186.777 20.4452V29.2502H184.724V27.4405H184.619C184.48 27.7305 184.248 28.0409 183.923 28.3715C183.599 28.7021 183.166 28.9834 182.627 29.2154C182.088 29.4475 181.429 29.5635 180.652 29.5635ZM180.965 27.7189C181.777 27.7189 182.462 27.5594 183.019 27.2404C183.581 26.9214 184.005 26.5095 184.289 26.0049C184.579 25.5003 184.724 24.9695 184.724 24.4127V22.5333C184.637 22.6377 184.445 22.7334 184.15 22.8205C183.86 22.9017 183.523 22.9742 183.14 23.038C182.763 23.096 182.395 23.1482 182.035 23.1946C181.682 23.2352 181.394 23.27 181.174 23.299C180.64 23.3686 180.142 23.4817 179.678 23.6383C179.219 23.7891 178.848 24.0182 178.564 24.3257C178.285 24.6273 178.146 25.0391 178.146 25.5612C178.146 26.2746 178.41 26.8141 178.938 27.1795C179.472 27.5391 180.147 27.7189 180.965 27.7189ZM191.703 21.2108V29.2502H189.65V15.886H191.634V17.9742H191.808C192.121 17.2955 192.597 16.7503 193.235 16.3385C193.873 15.9208 194.696 15.712 195.706 15.712C196.611 15.712 197.402 15.8976 198.081 16.2689C198.76 16.6343 199.287 17.1911 199.664 17.9394C200.042 18.6818 200.23 19.6215 200.23 20.7584V29.2502H198.177V20.8976C198.177 19.8477 197.904 19.0299 197.359 18.444C196.814 17.8524 196.065 17.5566 195.114 17.5566C194.459 17.5566 193.873 17.6987 193.357 17.9829C192.846 18.2671 192.443 18.6818 192.147 19.2271C191.851 19.7723 191.703 20.4336 191.703 21.2108ZM224.436 20.3408C224.436 22.2201 224.097 23.8442 223.418 25.2131C222.74 26.582 221.809 27.6377 220.625 28.3802C219.442 29.1226 218.091 29.4939 216.571 29.4939C215.051 29.4939 213.7 29.1226 212.516 28.3802C211.333 27.6377 210.402 26.582 209.723 25.2131C209.045 23.8442 208.705 22.2201 208.705 20.3408C208.705 18.4614 209.045 16.8373 209.723 15.4684C210.402 14.0995 211.333 13.0438 212.516 12.3013C213.7 11.5589 215.051 11.1877 216.571 11.1877C218.091 11.1877 219.442 11.5589 220.625 12.3013C221.809 13.0438 222.74 14.0995 223.418 15.4684C224.097 16.8373 224.436 18.4614 224.436 20.3408ZM222.348 20.3408C222.348 18.7978 222.09 17.4956 221.574 16.4342C221.063 15.3727 220.37 14.5693 219.494 14.0241C218.624 13.4788 217.65 13.2062 216.571 13.2062C215.492 13.2062 214.515 13.4788 213.639 14.0241C212.769 14.5693 212.075 15.3727 211.559 16.4342C211.049 17.4956 210.794 18.7978 210.794 20.3408C210.794 21.8837 211.049 23.1859 211.559 24.2474C212.075 25.3088 212.769 26.1122 213.639 26.6574C214.515 27.2027 215.492 27.4753 216.571 27.4753C217.65 27.4753 218.624 27.2027 219.494 26.6574C220.37 26.1122 221.063 25.3088 221.574 24.2474C222.09 23.1859 222.348 21.8837 222.348 20.3408ZM228.964 11.4313V29.2502H226.911V11.4313H228.964ZM235.783 29.5635C234.936 29.5635 234.167 29.404 233.477 29.0849C232.787 28.7601 232.239 28.2932 231.833 27.6841C231.427 27.0693 231.224 26.3268 231.224 25.4568C231.224 24.6911 231.374 24.0704 231.676 23.5948C231.978 23.1134 232.381 22.7363 232.885 22.4637C233.39 22.1911 233.947 21.9881 234.556 21.8547C235.171 21.7155 235.789 21.6053 236.409 21.5241C237.221 21.4196 237.88 21.3413 238.384 21.2891C238.895 21.2311 239.266 21.1354 239.498 21.002C239.736 20.8686 239.855 20.6366 239.855 20.306V20.2364C239.855 19.3779 239.62 18.7108 239.15 18.2352C238.686 17.7596 237.981 17.5217 237.036 17.5217C236.055 17.5217 235.287 17.7364 234.73 18.1656C234.173 18.5948 233.782 19.0531 233.555 19.5403L231.606 18.8442C231.955 18.0322 232.419 17.3999 232.999 16.9475C233.584 16.4893 234.222 16.1702 234.913 15.9904C235.609 15.8048 236.293 15.712 236.966 15.712C237.395 15.712 237.888 15.7642 238.445 15.8686C239.008 15.9672 239.55 16.1731 240.072 16.4864C240.6 16.7996 241.038 17.2723 241.386 17.9046C241.734 18.5368 241.908 19.3837 241.908 20.4452V29.2502H239.855V27.4405H239.75C239.611 27.7305 239.379 28.0409 239.054 28.3715C238.729 28.7021 238.297 28.9834 237.758 29.2154C237.218 29.4475 236.56 29.5635 235.783 29.5635ZM236.096 27.7189C236.908 27.7189 237.593 27.5594 238.149 27.2404C238.712 26.9214 239.135 26.5095 239.42 26.0049C239.71 25.5003 239.855 24.9695 239.855 24.4127V22.5333C239.768 22.6377 239.576 22.7334 239.28 22.8205C238.99 22.9017 238.654 22.9742 238.271 23.038C237.894 23.096 237.526 23.1482 237.166 23.1946C236.812 23.2352 236.525 23.27 236.305 23.299C235.771 23.3686 235.272 23.4817 234.808 23.6383C234.35 23.7891 233.979 24.0182 233.695 24.3257C233.416 24.6273 233.277 25.0391 233.277 25.5612C233.277 26.2746 233.541 26.8141 234.069 27.1795C234.602 27.5391 235.278 27.7189 236.096 27.7189ZM246.834 21.2108V29.2502H244.781V11.4313H246.834V17.9742H247.008C247.321 17.2839 247.791 16.7358 248.418 16.3298C249.05 15.9179 249.891 15.712 250.941 15.712C251.852 15.712 252.649 15.8947 253.334 16.2602C254.018 16.6198 254.549 17.1737 254.926 17.922C255.309 18.6644 255.5 19.6099 255.5 20.7584V29.2502H253.447V20.8976C253.447 19.8361 253.171 19.0154 252.62 18.4353C252.075 17.8495 251.318 17.5566 250.349 17.5566C249.676 17.5566 249.073 17.6987 248.54 17.9829C248.012 18.2671 247.594 18.6818 247.287 19.2271C246.985 19.7723 246.834 20.4336 246.834 21.2108ZM258.382 29.2502V15.886H260.365V17.9046H260.505C260.748 17.2433 261.189 16.7068 261.827 16.295C262.465 15.8831 263.184 15.6772 263.985 15.6772C264.136 15.6772 264.324 15.6801 264.55 15.6859C264.777 15.6917 264.948 15.7004 265.064 15.712V17.8002C264.994 17.7828 264.835 17.7567 264.585 17.7219C264.341 17.6813 264.083 17.661 263.811 17.661C263.161 17.661 262.581 17.7973 262.071 18.0699C261.566 18.3367 261.166 18.7079 260.87 19.1836C260.58 19.6534 260.435 20.19 260.435 20.7932V29.2502H258.382ZM270.555 29.5635C269.708 29.5635 268.94 29.404 268.25 29.0849C267.559 28.7601 267.011 28.2932 266.605 27.6841C266.199 27.0693 265.996 26.3268 265.996 25.4568C265.996 24.6911 266.147 24.0704 266.449 23.5948C266.75 23.1134 267.153 22.7363 267.658 22.4637C268.163 22.1911 268.719 21.9881 269.329 21.8547C269.943 21.7155 270.561 21.6053 271.182 21.5241C271.994 21.4196 272.652 21.3413 273.157 21.2891C273.667 21.2311 274.038 21.1354 274.271 21.002C274.508 20.8686 274.627 20.6366 274.627 20.306V20.2364C274.627 19.3779 274.392 18.7108 273.922 18.2352C273.458 17.7596 272.754 17.5217 271.808 17.5217C270.828 17.5217 270.059 17.7364 269.503 18.1656C268.946 18.5948 268.554 19.0531 268.328 19.5403L266.379 18.8442C266.727 18.0322 267.191 17.3999 267.771 16.9475C268.357 16.4893 268.995 16.1702 269.685 15.9904C270.381 15.8048 271.066 15.712 271.739 15.712C272.168 15.712 272.661 15.7642 273.218 15.8686C273.78 15.9672 274.323 16.1731 274.845 16.4864C275.373 16.7996 275.811 17.2723 276.159 17.9046C276.507 18.5368 276.681 19.3837 276.681 20.4452V29.2502H274.627V27.4405H274.523C274.384 27.7305 274.152 28.0409 273.827 28.3715C273.502 28.7021 273.07 28.9834 272.53 29.2154C271.991 29.4475 271.333 29.5635 270.555 29.5635ZM270.869 27.7189C271.681 27.7189 272.365 27.5594 272.922 27.2404C273.485 26.9214 273.908 26.5095 274.192 26.0049C274.482 25.5003 274.627 24.9695 274.627 24.4127V22.5333C274.54 22.6377 274.349 22.7334 274.053 22.8205C273.763 22.9017 273.427 22.9742 273.044 23.038C272.667 23.096 272.298 23.1482 271.939 23.1946C271.585 23.2352 271.298 23.27 271.077 23.299C270.544 23.3686 270.045 23.4817 269.581 23.6383C269.123 23.7891 268.751 24.0182 268.467 24.3257C268.189 24.6273 268.05 25.0391 268.05 25.5612C268.05 26.2746 268.313 26.8141 268.841 27.1795C269.375 27.5391 270.051 27.7189 270.869 27.7189ZM284.948 34.5402C283.956 34.5402 283.103 34.4126 282.39 34.1574C281.676 33.908 281.082 33.5774 280.606 33.1655C280.136 32.7595 279.762 32.3245 279.484 31.8604L281.119 30.712C281.305 30.9556 281.54 31.234 281.824 31.5472C282.108 31.8662 282.497 32.1418 282.99 32.3738C283.489 32.6116 284.142 32.7305 284.948 32.7305C286.027 32.7305 286.917 32.4695 287.619 31.9475C288.321 31.4254 288.672 30.6075 288.672 29.4939V26.7793H288.498C288.347 27.0229 288.132 27.3245 287.854 27.6841C287.581 28.038 287.187 28.3541 286.671 28.6325C286.16 28.9051 285.47 29.0414 284.6 29.0414C283.521 29.0414 282.552 28.7862 281.694 28.2758C280.841 27.7653 280.165 27.0229 279.666 26.0484C279.173 25.0739 278.927 23.8906 278.927 22.4985C278.927 21.1296 279.168 19.9376 279.649 18.9226C280.131 17.9017 280.8 17.1128 281.659 16.556C282.517 15.9933 283.509 15.712 284.635 15.712C285.505 15.712 286.195 15.857 286.705 16.147C287.222 16.4313 287.616 16.7561 287.889 17.1215C288.167 17.4811 288.382 17.777 288.532 18.009H288.741V15.886H290.725V29.6331C290.725 30.7816 290.464 31.7154 289.942 32.4347C289.426 33.1597 288.73 33.6905 287.854 34.0269C286.984 34.3691 286.015 34.5402 284.948 34.5402ZM284.878 27.1969C285.702 27.1969 286.398 27.0084 286.966 26.6313C287.535 26.2543 287.967 25.712 288.263 25.0043C288.559 24.2967 288.706 23.4498 288.706 22.4637C288.706 21.5009 288.561 20.6511 288.271 19.9144C287.981 19.1778 287.552 18.6006 286.984 18.183C286.415 17.7654 285.713 17.5566 284.878 17.5566C284.008 17.5566 283.283 17.777 282.703 18.2178C282.129 18.6586 281.697 19.2503 281.407 19.9927C281.122 20.7352 280.98 21.5589 280.98 22.4637C280.98 23.3918 281.125 24.2126 281.415 24.926C281.711 25.6337 282.146 26.1905 282.72 26.5965C283.3 26.9968 284.02 27.1969 284.878 27.1969ZM297.541 29.5635C296.695 29.5635 295.926 29.404 295.236 29.0849C294.545 28.7601 293.997 28.2932 293.591 27.6841C293.185 27.0693 292.982 26.3268 292.982 25.4568C292.982 24.6911 293.133 24.0704 293.435 23.5948C293.736 23.1134 294.139 22.7363 294.644 22.4637C295.149 22.1911 295.706 21.9881 296.315 21.8547C296.929 21.7155 297.547 21.6053 298.168 21.5241C298.98 21.4196 299.638 21.3413 300.143 21.2891C300.653 21.2311 301.025 21.1354 301.257 21.002C301.494 20.8686 301.613 20.6366 301.613 20.306V20.2364C301.613 19.3779 301.378 18.7108 300.909 18.2352C300.444 17.7596 299.74 17.5217 298.794 17.5217C297.814 17.5217 297.045 17.7364 296.489 18.1656C295.932 18.5948 295.54 19.0531 295.314 19.5403L293.365 18.8442C293.713 18.0322 294.177 17.3999 294.757 16.9475C295.343 16.4893 295.981 16.1702 296.671 15.9904C297.367 15.8048 298.052 15.712 298.725 15.712C299.154 15.712 299.647 15.7642 300.204 15.8686C300.766 15.9672 301.309 16.1731 301.831 16.4864C302.359 16.7996 302.797 17.2723 303.145 17.9046C303.493 18.5368 303.667 19.3837 303.667 20.4452V29.2502H301.613V27.4405H301.509C301.37 27.7305 301.138 28.0409 300.813 28.3715C300.488 28.7021 300.056 28.9834 299.516 29.2154C298.977 29.4475 298.319 29.5635 297.541 29.5635ZM297.855 27.7189C298.667 27.7189 299.351 27.5594 299.908 27.2404C300.471 26.9214 300.894 26.5095 301.178 26.0049C301.468 25.5003 301.613 24.9695 301.613 24.4127V22.5333C301.526 22.6377 301.335 22.7334 301.039 22.8205C300.749 22.9017 300.413 22.9742 300.03 23.038C299.653 23.096 299.284 23.1482 298.925 23.1946C298.571 23.2352 298.284 23.27 298.063 23.299C297.53 23.3686 297.031 23.4817 296.567 23.6383C296.109 23.7891 295.737 24.0182 295.453 24.3257C295.175 24.6273 295.036 25.0391 295.036 25.5612C295.036 26.2746 295.299 26.8141 295.827 27.1795C296.361 27.5391 297.037 27.7189 297.855 27.7189Z" fill="black"/>
<g clip-path="url(#clip0_119_587)">
<path d="M34.2331 29.5407L28.3594 29.147C27.9329 29.1224 27.5145 29.2372 27.1699 29.4915C26.8254 29.7458 26.5793 30.0986 26.4808 30.517L25.037 36.2266C23.7491 36.5711 22.3955 36.7516 21.0009 36.7516C19.6063 36.7516 18.2528 36.5711 16.9648 36.2266L15.521 30.517C15.4143 30.1068 15.1682 29.7458 14.8319 29.4915C14.4956 29.2372 14.069 29.1224 13.6424 29.147L7.7687 29.5407C6.32489 27.3094 5.43071 24.6843 5.27484 21.8623L10.2544 18.7286C10.6153 18.4989 10.8778 18.1543 11.0091 17.7523C11.1403 17.3504 11.1239 16.9156 10.9681 16.5218L8.77773 11.0583C10.5005 8.95821 12.74 7.3011 15.3159 6.30848L19.8442 10.0821C20.1724 10.3528 20.5825 10.5005 21.0009 10.5005C21.4193 10.5005 21.8377 10.3528 22.1576 10.0821L26.6859 6.30848C29.2536 7.3011 31.5014 8.95821 33.2159 11.0583L31.0256 16.5218C30.8697 16.9156 30.8533 17.3504 30.9846 17.7523C31.1158 18.1543 31.3865 18.4989 31.7393 18.7286L36.7188 21.8623C36.5629 24.6843 35.6688 27.3094 34.2249 29.5407H34.2331ZM21.0009 42.0018C26.5707 42.0018 31.9124 39.7892 35.8508 35.8508C39.7892 31.9124 42.0018 26.5707 42.0018 21.0009C42.0018 15.4311 39.7892 10.0895 35.8508 6.15103C31.9124 2.21259 26.5707 0 21.0009 0C15.4311 0 10.0895 2.21259 6.15103 6.15103C2.21259 10.0895 0 15.4311 0 21.0009C0 26.5707 2.21259 31.9124 6.15103 35.8508C10.0895 39.7892 15.4311 42.0018 21.0009 42.0018ZM22.1576 15.2831C21.4685 14.7827 20.5333 14.7827 19.8442 15.2831L15.9148 18.1297C15.2257 18.6301 14.9385 19.5161 15.2011 20.3282L16.7023 24.9468C16.9648 25.7589 17.7195 26.3086 18.5727 26.3086H23.4292C24.2823 26.3086 25.037 25.7589 25.2995 24.9468L26.8008 20.3282C27.0633 19.5161 26.7762 18.6301 26.0871 18.1297L22.1576 15.2749V15.2831Z" fill="#DB2777"/>
</g>
<defs>
<clipPath id="clip0_119_587">
<rect width="42.0018" height="42.0018" fill="white"/>
</clipPath>
</defs>
</svg>
