<svg width="161" height="44" viewBox="0 0 161 44" fill="none" xmlns="http://www.w3.org/2000/svg">
<path d="M111.34 18.7497H109.182C109.055 18.129 108.832 17.5838 108.512 17.114C108.199 16.6441 107.816 16.2497 107.364 15.9307C106.917 15.6058 106.421 15.3622 105.876 15.1998C105.331 15.0374 104.763 14.9562 104.171 14.9562C103.092 14.9562 102.115 15.2288 101.239 15.7741C100.369 16.3193 99.6755 17.1227 99.1593 18.1841C98.6488 19.2456 98.3936 20.5478 98.3936 22.0907C98.3936 23.6337 98.6488 24.9359 99.1593 25.9973C99.6755 27.0588 100.369 27.8622 101.239 28.4074C102.115 28.9527 103.092 29.2253 104.171 29.2253C104.763 29.2253 105.331 29.1441 105.876 28.9817C106.421 28.8193 106.917 28.5785 107.364 28.2595C107.816 27.9347 108.199 27.5374 108.512 27.0675C108.832 26.5919 109.055 26.0466 109.182 25.4318H111.34C111.178 26.3425 110.882 27.1574 110.453 27.8767C110.024 28.5959 109.49 29.2079 108.852 29.7125C108.214 30.2114 107.497 30.5913 106.703 30.8523C105.914 31.1133 105.07 31.2438 104.171 31.2438C102.651 31.2438 101.3 30.8726 100.116 30.1302C98.9331 29.3877 98.0021 28.332 97.3234 26.9631C96.6448 25.5942 96.3055 23.9701 96.3055 22.0907C96.3055 20.2114 96.6448 18.5873 97.3234 17.2184C98.0021 15.8495 98.9331 14.7938 100.116 14.0513C101.3 13.3089 102.651 12.9376 104.171 12.9376C105.07 12.9376 105.914 13.0681 106.703 13.3292C107.497 13.5902 108.214 13.973 108.852 14.4777C109.49 14.9765 110.024 15.5855 110.453 16.3048C110.882 17.0182 111.178 17.8332 111.34 18.7497ZM128.291 18.7497H126.133C126.005 18.129 125.782 17.5838 125.463 17.114C125.15 16.6441 124.767 16.2497 124.314 15.9307C123.868 15.6058 123.372 15.3622 122.827 15.1998C122.281 15.0374 121.713 14.9562 121.121 14.9562C120.042 14.9562 119.065 15.2288 118.189 15.7741C117.319 16.3193 116.626 17.1227 116.11 18.1841C115.599 19.2456 115.344 20.5478 115.344 22.0907C115.344 23.6337 115.599 24.9359 116.11 25.9973C116.626 27.0588 117.319 27.8622 118.189 28.4074C119.065 28.9527 120.042 29.2253 121.121 29.2253C121.713 29.2253 122.281 29.1441 122.827 28.9817C123.372 28.8193 123.868 28.5785 124.314 28.2595C124.767 27.9347 125.15 27.5374 125.463 27.0675C125.782 26.5919 126.005 26.0466 126.133 25.4318H128.291C128.128 26.3425 127.832 27.1574 127.403 27.8767C126.974 28.5959 126.44 29.2079 125.802 29.7125C125.164 30.2114 124.448 30.5913 123.653 30.8523C122.864 31.1133 122.02 31.2438 121.121 31.2438C119.602 31.2438 118.25 30.8726 117.067 30.1302C115.884 29.3877 114.953 28.332 114.274 26.9631C113.595 25.5942 113.256 23.9701 113.256 22.0907C113.256 20.2114 113.595 18.5873 114.274 17.2184C114.953 15.8495 115.884 14.7938 117.067 14.0513C118.25 13.3089 119.602 12.9376 121.121 12.9376C122.02 12.9376 122.864 13.0681 123.653 13.3292C124.448 13.5902 125.164 13.973 125.802 14.4777C126.44 14.9765 126.974 15.5855 127.403 16.3048C127.832 17.0182 128.128 17.8332 128.291 18.7497ZM129.928 15.0954V13.1813H143.292V15.0954H137.689V31.0002H135.531V15.0954H129.928ZM146.478 13.1813L151.768 28.1812H151.977L157.267 13.1813H159.529L152.986 31.0002H150.759L144.216 13.1813H146.478Z" fill="black"/>
<g clip-path="url(#clip0_119_580)">
<path d="M0.339844 10.9379C0.339844 7.92139 2.79234 5.46889 5.80883 5.46889H27.6848C30.7013 5.46889 33.1538 7.92139 33.1538 10.9379V32.8138C33.1538 35.8303 30.7013 38.2828 27.6848 38.2828H5.80883C2.79234 38.2828 0.339844 35.8303 0.339844 32.8138V10.9379ZM48.1166 8.52811C49.0053 9.00664 49.5607 9.92953 49.5607 10.9379V32.8138C49.5607 33.8222 49.0053 34.7451 48.1166 35.2236C47.2279 35.7021 46.1512 35.6509 45.3052 35.0869L37.1017 29.6179L35.8883 28.8061V27.3448V16.4069V14.9456L37.1017 14.1338L45.3052 8.66483C46.1426 8.10939 47.2193 8.04957 48.1166 8.52811Z" fill="#DB2777"/>
</g>
<defs>
<clipPath id="clip0_119_580">
<rect width="49.2209" height="43.7519" fill="white" transform="translate(0.339844)"/>
</clipPath>
</defs>
</svg>
