<svg width="361" height="43" viewBox="0 0 361 43" fill="none" xmlns="http://www.w3.org/2000/svg">
<path d="M102.16 29.2502H96.6617V11.4313H102.404C104.133 11.4313 105.612 11.788 106.841 12.5014C108.071 13.2091 109.014 14.2271 109.669 15.5554C110.325 16.8779 110.652 18.4614 110.652 20.3059C110.652 22.1621 110.322 23.7601 109.66 25.1C108.999 26.4341 108.036 27.4608 106.772 28.18C105.507 28.8935 103.97 29.2502 102.16 29.2502ZM98.8194 27.3361H102.021C103.495 27.3361 104.716 27.0519 105.684 26.4834C106.653 25.915 107.375 25.1058 107.851 24.0559C108.326 23.0061 108.564 21.7561 108.564 20.3059C108.564 18.8674 108.329 17.629 107.859 16.5908C107.39 15.5467 106.688 14.7462 105.754 14.1894C104.82 13.6267 103.657 13.3454 102.265 13.3454H98.8194V27.3361ZM117.051 29.5635C116.204 29.5635 115.436 29.4039 114.745 29.0849C114.055 28.7601 113.507 28.2932 113.101 27.6841C112.695 27.0693 112.492 26.3268 112.492 25.4567C112.492 24.6911 112.643 24.0704 112.944 23.5948C113.246 23.1134 113.649 22.7363 114.154 22.4637C114.658 22.1911 115.215 21.9881 115.824 21.8547C116.439 21.7155 117.057 21.6052 117.678 21.524C118.49 21.4196 119.148 21.3413 119.653 21.2891C120.163 21.2311 120.534 21.1354 120.766 21.002C121.004 20.8686 121.123 20.6366 121.123 20.3059V20.2363C121.123 19.3779 120.888 18.7108 120.418 18.2352C119.954 17.7596 119.249 17.5217 118.304 17.5217C117.324 17.5217 116.555 17.7363 115.998 18.1656C115.441 18.5948 115.05 19.053 114.824 19.5403L112.875 18.8442C113.223 18.0322 113.687 17.3999 114.267 16.9475C114.853 16.4893 115.491 16.1702 116.181 15.9904C116.877 15.8048 117.561 15.712 118.234 15.712C118.664 15.712 119.157 15.7642 119.713 15.8686C120.276 15.9672 120.818 16.1731 121.34 16.4864C121.868 16.7996 122.306 17.2723 122.654 17.9046C123.002 18.5368 123.176 19.3837 123.176 20.4452V29.2502H121.123V27.4405H121.019C120.879 27.7305 120.647 28.0408 120.323 28.3715C119.998 28.7021 119.566 28.9834 119.026 29.2154C118.487 29.4474 117.828 29.5635 117.051 29.5635ZM117.364 27.7189C118.176 27.7189 118.861 27.5594 119.418 27.2404C119.98 26.9214 120.404 26.5095 120.688 26.0049C120.978 25.5002 121.123 24.9695 121.123 24.4127V22.5333C121.036 22.6377 120.845 22.7334 120.549 22.8204C120.259 22.9016 119.922 22.9741 119.539 23.038C119.162 23.096 118.794 23.1482 118.434 23.1946C118.081 23.2352 117.794 23.27 117.573 23.299C117.039 23.3686 116.541 23.4817 116.077 23.6383C115.618 23.7891 115.247 24.0182 114.963 24.3257C114.684 24.6273 114.545 25.0391 114.545 25.5611C114.545 26.2746 114.809 26.814 115.337 27.1795C115.871 27.5391 116.546 27.7189 117.364 27.7189ZM126.049 34.2618V15.886H128.033V18.009H128.276C128.427 17.777 128.636 17.4811 128.903 17.1215C129.176 16.7561 129.564 16.4312 130.069 16.147C130.579 15.857 131.269 15.712 132.14 15.712C133.265 15.712 134.257 15.9933 135.115 16.556C135.974 17.1186 136.644 17.9162 137.125 18.9486C137.606 19.9811 137.847 21.1992 137.847 22.6029C137.847 24.0182 137.606 25.245 137.125 26.2833C136.644 27.3158 135.977 28.1162 135.124 28.6847C134.271 29.2473 133.288 29.5287 132.174 29.5287C131.316 29.5287 130.629 29.3865 130.112 29.1023C129.596 28.8123 129.199 28.4846 128.92 28.1191C128.642 27.7479 128.427 27.4405 128.276 27.1969H128.102V34.2618H126.049ZM128.068 22.5681C128.068 23.5774 128.216 24.4678 128.511 25.2392C128.807 26.0049 129.239 26.6052 129.808 27.0403C130.376 27.4695 131.072 27.6841 131.896 27.6841C132.754 27.6841 133.471 27.4579 134.045 27.0055C134.625 26.5472 135.06 25.9324 135.35 25.1609C135.646 24.3837 135.794 23.5194 135.794 22.5681C135.794 21.6284 135.649 20.7816 135.359 20.0275C135.075 19.2677 134.642 18.6673 134.062 18.2265C133.488 17.7799 132.766 17.5565 131.896 17.5565C131.061 17.5565 130.359 17.7683 129.79 18.1917C129.222 18.6093 128.793 19.1952 128.503 19.9492C128.213 20.6975 128.068 21.5704 128.068 22.5681ZM148.527 23.7862V15.886H150.58V29.2502H148.527V26.9881H148.387C148.074 27.6667 147.587 28.2439 146.926 28.7195C146.264 29.1893 145.429 29.4242 144.42 29.4242C143.585 29.4242 142.842 29.2415 142.193 28.8761C141.543 28.5049 141.032 27.948 140.661 27.2056C140.29 26.4573 140.104 25.5147 140.104 24.3779V15.886H142.158V24.2386C142.158 25.2131 142.43 25.9904 142.976 26.5704C143.527 27.1505 144.229 27.4405 145.081 27.4405C145.592 27.4405 146.111 27.31 146.639 27.049C147.172 26.7879 147.619 26.3877 147.979 25.8483C148.344 25.3088 148.527 24.6215 148.527 23.7862ZM153.466 29.2502V15.886H155.45V17.9046H155.589C155.832 17.2433 156.273 16.7068 156.911 16.2949C157.549 15.8831 158.269 15.6772 159.069 15.6772C159.22 15.6772 159.408 15.6801 159.635 15.6859C159.861 15.6917 160.032 15.7004 160.148 15.712V17.8002C160.078 17.7828 159.919 17.7567 159.669 17.7218C159.426 17.6812 159.168 17.6609 158.895 17.6609C158.245 17.6609 157.665 17.7973 157.155 18.0699C156.65 18.3367 156.25 18.7079 155.954 19.1836C155.664 19.6534 155.519 20.1899 155.519 20.7932V29.2502H153.466ZM168.001 29.2502V11.4313H170.055V18.009H170.229C170.379 17.777 170.588 17.4811 170.855 17.1215C171.128 16.7561 171.516 16.4312 172.021 16.147C172.531 15.857 173.222 15.712 174.092 15.712C175.217 15.712 176.209 15.9933 177.067 16.556C177.926 17.1186 178.596 17.9162 179.077 18.9486C179.559 19.9811 179.799 21.1992 179.799 22.6029C179.799 24.0182 179.559 25.245 179.077 26.2833C178.596 27.3158 177.929 28.1162 177.076 28.6847C176.223 29.2473 175.24 29.5287 174.126 29.5287C173.268 29.5287 172.581 29.3865 172.064 29.1023C171.548 28.8123 171.151 28.4846 170.872 28.1191C170.594 27.7479 170.379 27.4405 170.229 27.1969H169.985V29.2502H168.001ZM170.02 22.5681C170.02 23.5774 170.168 24.4678 170.464 25.2392C170.759 26.0049 171.191 26.6052 171.76 27.0403C172.328 27.4695 173.024 27.6841 173.848 27.6841C174.707 27.6841 175.423 27.4579 175.997 27.0055C176.577 26.5472 177.012 25.9324 177.302 25.1609C177.598 24.3837 177.746 23.5194 177.746 22.5681C177.746 21.6284 177.601 20.7816 177.311 20.0275C177.027 19.2677 176.595 18.6673 176.015 18.2265C175.44 17.7799 174.718 17.5565 173.848 17.5565C173.013 17.5565 172.311 17.7683 171.743 18.1917C171.174 18.6093 170.745 19.1952 170.455 19.9492C170.165 20.6975 170.02 21.5704 170.02 22.5681ZM187.668 29.5287C186.381 29.5287 185.27 29.2444 184.336 28.676C183.408 28.1017 182.692 27.3013 182.187 26.2746C181.688 25.2421 181.439 24.0414 181.439 22.6725C181.439 21.3036 181.688 20.0971 182.187 19.053C182.692 18.0032 183.394 17.1853 184.293 16.5995C185.197 16.0078 186.253 15.712 187.46 15.712C188.156 15.712 188.843 15.828 189.522 16.06C190.2 16.292 190.818 16.6691 191.375 17.1911C191.932 17.7073 192.376 18.3918 192.706 19.2445C193.037 20.0971 193.202 21.147 193.202 22.3941V23.2642H182.9V21.4892H191.114C191.114 20.7352 190.963 20.0623 190.661 19.4707C190.366 18.879 189.942 18.4121 189.391 18.0699C188.846 17.7276 188.202 17.5565 187.46 17.5565C186.642 17.5565 185.934 17.7596 185.337 18.1656C184.745 18.5658 184.29 19.0879 183.971 19.7317C183.652 20.3756 183.492 21.0658 183.492 21.8025V22.9858C183.492 23.995 183.666 24.8506 184.014 25.5524C184.368 26.2485 184.858 26.7792 185.485 27.1447C186.111 27.5043 186.839 27.6841 187.668 27.6841C188.208 27.6841 188.695 27.6087 189.13 27.4579C189.571 27.3013 189.951 27.0693 190.27 26.7618C190.589 26.4486 190.835 26.06 191.01 25.5959L192.993 26.1528C192.784 26.8256 192.434 27.4173 191.94 27.9277C191.447 28.4324 190.838 28.8268 190.113 29.111C189.388 29.3894 188.573 29.5287 187.668 29.5287ZM195.451 29.2502V15.886H197.434V17.9046H197.574C197.817 17.2433 198.258 16.7068 198.896 16.2949C199.534 15.8831 200.253 15.6772 201.054 15.6772C201.205 15.6772 201.393 15.6801 201.619 15.6859C201.846 15.6917 202.017 15.7004 202.133 15.712V17.8002C202.063 17.7828 201.904 17.7567 201.654 17.7218C201.411 17.6812 201.152 17.6609 200.88 17.6609C200.23 17.6609 199.65 17.7973 199.14 18.0699C198.635 18.3367 198.235 18.7079 197.939 19.1836C197.649 19.6534 197.504 20.1899 197.504 20.7932V29.2502H195.451ZM213.158 18.879L211.313 19.4011C211.197 19.0937 211.026 18.7949 210.8 18.5049C210.58 18.2091 210.278 17.9655 209.895 17.7741C209.512 17.5826 209.022 17.4869 208.425 17.4869C207.607 17.4869 206.925 17.6754 206.38 18.0525C205.841 18.4237 205.571 18.8964 205.571 19.4707C205.571 19.9811 205.757 20.3843 206.128 20.6801C206.499 20.9759 207.079 21.2224 207.868 21.4196L209.852 21.9069C211.047 22.1969 211.937 22.6406 212.523 23.2381C213.109 23.8297 213.402 24.5925 213.402 25.5263C213.402 26.292 213.181 26.9765 212.74 27.5797C212.305 28.1829 211.696 28.6586 210.913 29.0066C210.13 29.3546 209.219 29.5287 208.181 29.5287C206.818 29.5287 205.69 29.2328 204.797 28.6412C203.903 28.0495 203.338 27.1853 203.1 26.0484L205.049 25.5611C205.235 26.2804 205.585 26.8198 206.102 27.1795C206.624 27.5391 207.305 27.7189 208.146 27.7189C209.103 27.7189 209.863 27.5159 210.426 27.1099C210.994 26.698 211.279 26.205 211.279 25.6308C211.279 25.1667 211.116 24.7781 210.791 24.4649C210.467 24.1458 209.968 23.908 209.295 23.7514L207.068 23.2294C205.844 22.9393 204.945 22.4898 204.37 21.8808C203.802 21.2659 203.518 20.4974 203.518 19.5751C203.518 18.821 203.729 18.154 204.153 17.5739C204.582 16.9939 205.165 16.5386 205.902 16.2079C206.644 15.8773 207.485 15.712 208.425 15.712C209.747 15.712 210.786 16.002 211.54 16.5821C212.3 17.1621 212.839 17.9278 213.158 18.879ZM219.55 29.5635C218.703 29.5635 217.935 29.4039 217.244 29.0849C216.554 28.7601 216.006 28.2932 215.6 27.6841C215.194 27.0693 214.991 26.3268 214.991 25.4567C214.991 24.6911 215.142 24.0704 215.443 23.5948C215.745 23.1134 216.148 22.7363 216.653 22.4637C217.157 22.1911 217.714 21.9881 218.323 21.8547C218.938 21.7155 219.556 21.6052 220.177 21.524C220.989 21.4196 221.647 21.3413 222.152 21.2891C222.662 21.2311 223.033 21.1354 223.265 21.002C223.503 20.8686 223.622 20.6366 223.622 20.3059V20.2363C223.622 19.3779 223.387 18.7108 222.917 18.2352C222.453 17.7596 221.749 17.5217 220.803 17.5217C219.823 17.5217 219.054 17.7363 218.497 18.1656C217.941 18.5948 217.549 19.053 217.323 19.5403L215.374 18.8442C215.722 18.0322 216.186 17.3999 216.766 16.9475C217.352 16.4893 217.99 16.1702 218.68 15.9904C219.376 15.8048 220.061 15.712 220.733 15.712C221.163 15.712 221.656 15.7642 222.213 15.8686C222.775 15.9672 223.318 16.1731 223.84 16.4864C224.367 16.7996 224.805 17.2723 225.153 17.9046C225.501 18.5368 225.675 19.3837 225.675 20.4452V29.2502H223.622V27.4405H223.518C223.378 27.7305 223.146 28.0408 222.822 28.3715C222.497 28.7021 222.065 28.9834 221.525 29.2154C220.986 29.4474 220.327 29.5635 219.55 29.5635ZM219.863 27.7189C220.675 27.7189 221.36 27.5594 221.917 27.2404C222.479 26.9214 222.903 26.5095 223.187 26.0049C223.477 25.5002 223.622 24.9695 223.622 24.4127V22.5333C223.535 22.6377 223.344 22.7334 223.048 22.8204C222.758 22.9016 222.421 22.9741 222.039 23.038C221.662 23.096 221.293 23.1482 220.934 23.1946C220.58 23.2352 220.293 23.27 220.072 23.299C219.539 23.3686 219.04 23.4817 218.576 23.6383C218.117 23.7891 217.746 24.0182 217.462 24.3257C217.184 24.6273 217.044 25.0391 217.044 25.5611C217.044 26.2746 217.308 26.814 217.836 27.1795C218.37 27.5391 219.046 27.7189 219.863 27.7189ZM228.548 29.2502V15.886H230.532V17.9742H230.706C230.984 17.2607 231.434 16.7068 232.055 16.3123C232.675 15.9121 233.421 15.712 234.291 15.712C235.172 15.712 235.906 15.9121 236.492 16.3123C237.084 16.7068 237.545 17.2607 237.875 17.9742H238.015C238.357 17.2839 238.87 16.7358 239.555 16.3297C240.239 15.9179 241.06 15.712 242.017 15.712C243.212 15.712 244.189 16.0861 244.949 16.8344C245.709 17.5768 246.089 18.734 246.089 20.3059V29.2502H244.035V20.3059C244.035 19.3199 243.766 18.6151 243.226 18.1917C242.687 17.7683 242.052 17.5565 241.321 17.5565C240.381 17.5565 239.653 17.8408 239.137 18.4092C238.621 18.9718 238.363 19.6853 238.363 20.5496V29.2502H236.274V20.0971C236.274 19.3373 236.028 18.7253 235.535 18.2613C235.042 17.7915 234.407 17.5565 233.629 17.5565C233.096 17.5565 232.597 17.6986 232.133 17.9829C231.675 18.2671 231.303 18.6615 231.019 19.1662C230.741 19.665 230.602 20.2421 230.602 20.8976V29.2502H228.548ZM252.901 29.5635C252.054 29.5635 251.285 29.4039 250.595 29.0849C249.905 28.7601 249.357 28.2932 248.951 27.6841C248.545 27.0693 248.342 26.3268 248.342 25.4567C248.342 24.6911 248.492 24.0704 248.794 23.5948C249.096 23.1134 249.499 22.7363 250.003 22.4637C250.508 22.1911 251.065 21.9881 251.674 21.8547C252.289 21.7155 252.907 21.6052 253.527 21.524C254.339 21.4196 254.998 21.3413 255.502 21.2891C256.013 21.2311 256.384 21.1354 256.616 21.002C256.854 20.8686 256.973 20.6366 256.973 20.3059V20.2363C256.973 19.3779 256.738 18.7108 256.268 18.2352C255.804 17.7596 255.099 17.5217 254.154 17.5217C253.173 17.5217 252.405 17.7363 251.848 18.1656C251.291 18.5948 250.9 19.053 250.673 19.5403L248.724 18.8442C249.072 18.0322 249.536 17.3999 250.117 16.9475C250.702 16.4893 251.34 16.1702 252.031 15.9904C252.727 15.8048 253.411 15.712 254.084 15.712C254.513 15.712 255.006 15.7642 255.563 15.8686C256.126 15.9672 256.668 16.1731 257.19 16.4864C257.718 16.7996 258.156 17.2723 258.504 17.9046C258.852 18.5368 259.026 19.3837 259.026 20.4452V29.2502H256.973V27.4405H256.868C256.729 27.7305 256.497 28.0408 256.172 28.3715C255.847 28.7021 255.415 28.9834 254.876 29.2154C254.336 29.4474 253.678 29.5635 252.901 29.5635ZM253.214 27.7189C254.026 27.7189 254.71 27.5594 255.267 27.2404C255.83 26.9214 256.253 26.5095 256.538 26.0049C256.828 25.5002 256.973 24.9695 256.973 24.4127V22.5333C256.886 22.6377 256.694 22.7334 256.398 22.8204C256.108 22.9016 255.772 22.9741 255.389 23.038C255.012 23.096 254.644 23.1482 254.284 23.1946C253.93 23.2352 253.643 23.27 253.423 23.299C252.889 23.3686 252.39 23.4817 251.926 23.6383C251.468 23.7891 251.097 24.0182 250.813 24.3257C250.534 24.6273 250.395 25.0391 250.395 25.5611C250.395 26.2746 250.659 26.814 251.187 27.1795C251.72 27.5391 252.396 27.7189 253.214 27.7189ZM267.915 34.2618V15.886H269.898V18.009H270.142C270.293 17.777 270.502 17.4811 270.769 17.1215C271.041 16.7561 271.43 16.4312 271.934 16.147C272.445 15.857 273.135 15.712 274.005 15.712C275.13 15.712 276.122 15.9933 276.981 16.556C277.839 17.1186 278.509 17.9162 278.991 18.9486C279.472 19.9811 279.713 21.1992 279.713 22.6029C279.713 24.0182 279.472 25.245 278.991 26.2833C278.509 27.3158 277.842 28.1162 276.989 28.6847C276.137 29.2473 275.154 29.5287 274.04 29.5287C273.181 29.5287 272.494 29.3865 271.978 29.1023C271.462 28.8123 271.064 28.4846 270.786 28.1191C270.507 27.7479 270.293 27.4405 270.142 27.1969H269.968V34.2618H267.915ZM269.933 22.5681C269.933 23.5774 270.081 24.4678 270.377 25.2392C270.673 26.0049 271.105 26.6052 271.673 27.0403C272.242 27.4695 272.938 27.6841 273.762 27.6841C274.62 27.6841 275.336 27.4579 275.911 27.0055C276.491 26.5472 276.926 25.9324 277.216 25.1609C277.512 24.3837 277.659 23.5194 277.659 22.5681C277.659 21.6284 277.514 20.7816 277.224 20.0275C276.94 19.2677 276.508 18.6673 275.928 18.2265C275.354 17.7799 274.632 17.5565 273.762 17.5565C272.926 17.5565 272.224 17.7683 271.656 18.1917C271.088 18.6093 270.658 19.1952 270.368 19.9492C270.078 20.6975 269.933 21.5704 269.933 22.5681ZM287.573 29.5287C286.286 29.5287 285.175 29.2444 284.241 28.676C283.313 28.1017 282.596 27.3013 282.092 26.2746C281.593 25.2421 281.344 24.0414 281.344 22.6725C281.344 21.3036 281.593 20.0971 282.092 19.053C282.596 18.0032 283.298 17.1853 284.197 16.5995C285.102 16.0078 286.158 15.712 287.364 15.712C288.06 15.712 288.748 15.828 289.426 16.06C290.105 16.292 290.723 16.6691 291.28 17.1911C291.837 17.7073 292.28 18.3918 292.611 19.2445C292.942 20.0971 293.107 21.147 293.107 22.3941V23.2642H282.805V21.4892H291.019C291.019 20.7352 290.868 20.0623 290.566 19.4707C290.27 18.879 289.847 18.4121 289.296 18.0699C288.751 17.7276 288.107 17.5565 287.364 17.5565C286.547 17.5565 285.839 17.7596 285.241 18.1656C284.65 18.5658 284.194 19.0879 283.875 19.7317C283.556 20.3756 283.397 21.0658 283.397 21.8025V22.9858C283.397 23.995 283.571 24.8506 283.919 25.5524C284.273 26.2485 284.763 26.7792 285.389 27.1447C286.016 27.5043 286.744 27.6841 287.573 27.6841C288.113 27.6841 288.6 27.6087 289.035 27.4579C289.476 27.3013 289.856 27.0693 290.175 26.7618C290.494 26.4486 290.74 26.06 290.914 25.5959L292.898 26.1528C292.689 26.8256 292.338 27.4173 291.845 27.9277C291.352 28.4324 290.743 28.8268 290.018 29.111C289.293 29.3894 288.478 29.5287 287.573 29.5287ZM295.355 29.2502V15.886H297.339V17.9046H297.478C297.722 17.2433 298.163 16.7068 298.801 16.2949C299.439 15.8831 300.158 15.6772 300.959 15.6772C301.109 15.6772 301.298 15.6801 301.524 15.6859C301.75 15.6917 301.921 15.7004 302.037 15.712V17.8002C301.968 17.7828 301.808 17.7567 301.559 17.7218C301.315 17.6812 301.057 17.6609 300.785 17.6609C300.135 17.6609 299.555 17.7973 299.044 18.0699C298.54 18.3367 298.14 18.7079 297.844 19.1836C297.554 19.6534 297.409 20.1899 297.409 20.7932V29.2502H295.355ZM305.65 11.4313V29.2502H303.596V11.4313H305.65ZM312.468 29.5635C311.621 29.5635 310.853 29.4039 310.163 29.0849C309.472 28.7601 308.924 28.2932 308.518 27.6841C308.112 27.0693 307.909 26.3268 307.909 25.4567C307.909 24.6911 308.06 24.0704 308.362 23.5948C308.663 23.1134 309.066 22.7363 309.571 22.4637C310.076 22.1911 310.632 21.9881 311.242 21.8547C311.856 21.7155 312.474 21.6052 313.095 21.524C313.907 21.4196 314.565 21.3413 315.07 21.2891C315.58 21.2311 315.951 21.1354 316.183 21.002C316.421 20.8686 316.54 20.6366 316.54 20.3059V20.2363C316.54 19.3779 316.305 18.7108 315.835 18.2352C315.371 17.7596 314.667 17.5217 313.721 17.5217C312.741 17.5217 311.972 17.7363 311.416 18.1656C310.859 18.5948 310.467 19.053 310.241 19.5403L308.292 18.8442C308.64 18.0322 309.104 17.3999 309.684 16.9475C310.27 16.4893 310.908 16.1702 311.598 15.9904C312.294 15.8048 312.979 15.712 313.652 15.712C314.081 15.712 314.574 15.7642 315.131 15.8686C315.693 15.9672 316.236 16.1731 316.758 16.4864C317.286 16.7996 317.723 17.2723 318.072 17.9046C318.42 18.5368 318.594 19.3837 318.594 20.4452V29.2502H316.54V27.4405H316.436C316.297 27.7305 316.065 28.0408 315.74 28.3715C315.415 28.7021 314.983 28.9834 314.443 29.2154C313.904 29.4474 313.246 29.5635 312.468 29.5635ZM312.782 27.7189C313.594 27.7189 314.278 27.5594 314.835 27.2404C315.398 26.9214 315.821 26.5095 316.105 26.0049C316.395 25.5002 316.54 24.9695 316.54 24.4127V22.5333C316.453 22.6377 316.262 22.7334 315.966 22.8204C315.676 22.9016 315.34 22.9741 314.957 23.038C314.58 23.096 314.211 23.1482 313.852 23.1946C313.498 23.2352 313.211 23.27 312.99 23.299C312.457 23.3686 311.958 23.4817 311.494 23.6383C311.036 23.7891 310.664 24.0182 310.38 24.3257C310.102 24.6273 309.963 25.0391 309.963 25.5611C309.963 26.2746 310.226 26.814 310.754 27.1795C311.288 27.5391 311.964 27.7189 312.782 27.7189ZM323.52 21.2108V29.2502H321.466V15.886H323.45V17.9742H323.624C323.937 17.2955 324.413 16.7503 325.051 16.3384C325.689 15.9208 326.513 15.712 327.522 15.712C328.427 15.712 329.219 15.8976 329.897 16.2688C330.576 16.6343 331.104 17.1911 331.481 17.9394C331.858 18.6818 332.046 19.6215 332.046 20.7584V29.2502H329.993V20.8976C329.993 19.8477 329.72 19.0298 329.175 18.444C328.63 17.8524 327.882 17.5565 326.93 17.5565C326.275 17.5565 325.689 17.6986 325.173 17.9829C324.662 18.2671 324.259 18.6818 323.963 19.2271C323.668 19.7723 323.52 20.4336 323.52 21.2108ZM340.736 15.886V17.6261H333.81V15.886H340.736ZM335.828 12.6842H337.882V25.4219C337.882 26.002 337.966 26.437 338.134 26.727C338.308 27.0113 338.528 27.2027 338.795 27.3013C339.068 27.3941 339.355 27.4405 339.657 27.4405C339.883 27.4405 340.068 27.4289 340.213 27.4057C340.358 27.3767 340.474 27.3535 340.562 27.3361L340.979 29.1806C340.84 29.2328 340.646 29.285 340.396 29.3372C340.147 29.3952 339.831 29.4242 339.448 29.4242C338.868 29.4242 338.299 29.2995 337.742 29.0501C337.191 28.8007 336.733 28.4208 336.368 27.9103C336.008 27.3999 335.828 26.756 335.828 25.9788V12.6842ZM346.882 29.5635C346.035 29.5635 345.266 29.4039 344.576 29.0849C343.886 28.7601 343.338 28.2932 342.932 27.6841C342.526 27.0693 342.323 26.3268 342.323 25.4567C342.323 24.6911 342.474 24.0704 342.775 23.5948C343.077 23.1134 343.48 22.7363 343.985 22.4637C344.489 22.1911 345.046 21.9881 345.655 21.8547C346.27 21.7155 346.888 21.6052 347.508 21.524C348.32 21.4196 348.979 21.3413 349.483 21.2891C349.994 21.2311 350.365 21.1354 350.597 21.002C350.835 20.8686 350.954 20.6366 350.954 20.3059V20.2363C350.954 19.3779 350.719 18.7108 350.249 18.2352C349.785 17.7596 349.08 17.5217 348.135 17.5217C347.155 17.5217 346.386 17.7363 345.829 18.1656C345.272 18.5948 344.881 19.053 344.655 19.5403L342.706 18.8442C343.054 18.0322 343.518 17.3999 344.098 16.9475C344.684 16.4893 345.322 16.1702 346.012 15.9904C346.708 15.8048 347.392 15.712 348.065 15.712C348.494 15.712 348.987 15.7642 349.544 15.8686C350.107 15.9672 350.649 16.1731 351.171 16.4864C351.699 16.7996 352.137 17.2723 352.485 17.9046C352.833 18.5368 353.007 19.3837 353.007 20.4452V29.2502H350.954V27.4405H350.849C350.71 27.7305 350.478 28.0408 350.153 28.3715C349.829 28.7021 349.396 28.9834 348.857 29.2154C348.318 29.4474 347.659 29.5635 346.882 29.5635ZM347.195 27.7189C348.007 27.7189 348.692 27.5594 349.248 27.2404C349.811 26.9214 350.235 26.5095 350.519 26.0049C350.809 25.5002 350.954 24.9695 350.954 24.4127V22.5333C350.867 22.6377 350.675 22.7334 350.38 22.8204C350.09 22.9016 349.753 22.9741 349.37 23.038C348.993 23.096 348.625 23.1482 348.265 23.1946C347.911 23.2352 347.624 23.27 347.404 23.299C346.87 23.3686 346.371 23.4817 345.907 23.6383C345.449 23.7891 345.078 24.0182 344.794 24.3257C344.515 24.6273 344.376 25.0391 344.376 25.5611C344.376 26.2746 344.64 26.814 345.168 27.1795C345.702 27.5391 346.377 27.7189 347.195 27.7189ZM355.88 29.2502V15.886H357.933V29.2502H355.88ZM356.924 13.6586C356.524 13.6586 356.179 13.5223 355.889 13.2497C355.604 12.9771 355.462 12.6494 355.462 12.2665C355.462 11.8837 355.604 11.556 355.889 11.2834C356.179 11.0107 356.524 10.8744 356.924 10.8744C357.324 10.8744 357.666 11.0107 357.951 11.2834C358.241 11.556 358.386 11.8837 358.386 12.2665C358.386 12.6494 358.241 12.9771 357.951 13.2497C357.666 13.5223 357.324 13.6586 356.924 13.6586Z" fill="black"/>
<g clip-path="url(#clip0_119_576)">
<path d="M19.6884 11.813C19.6884 9.72435 18.8586 7.72122 17.3817 6.24431C15.9048 4.76739 13.9017 3.93767 11.813 3.93767C9.72435 3.93767 7.72122 4.76739 6.24431 6.24431C4.76739 7.72122 3.93767 9.72435 3.93767 11.813C3.93767 13.9017 4.76739 15.9048 6.24431 17.3817C7.72122 18.8586 9.72435 19.6884 11.813 19.6884C13.9017 19.6884 15.9048 18.8586 17.3817 17.3817C18.8586 15.9048 19.6884 13.9017 19.6884 11.813ZM23.3307 14.4381C22.1412 19.6966 17.4324 23.626 11.813 23.626C5.29125 23.626 0 18.3348 0 11.813C0 5.29125 5.29125 0 11.813 0C17.4324 0 22.1412 3.92947 23.3307 9.1879H29.2208C29.9427 8.38396 30.9928 7.87534 32.1577 7.87534H40.6893C42.8632 7.87534 44.627 9.63909 44.627 11.813C44.627 13.9869 42.8632 15.7507 40.6893 15.7507H32.1577C30.9928 15.7507 29.9427 15.2421 29.2208 14.4381H23.3307ZM11.813 6.56279C13.2055 6.56279 14.5409 7.11593 15.5255 8.10054C16.5101 9.08515 17.0632 10.4206 17.0632 11.813C17.0632 13.2055 16.5101 14.5409 15.5255 15.5255C14.5409 16.5101 13.2055 17.0632 11.813 17.0632C10.4206 17.0632 9.08515 16.5101 8.10054 15.5255C7.11593 14.5409 6.56279 13.2055 6.56279 11.813C6.56279 10.4206 7.11593 9.08515 8.10054 8.10054C9.08515 7.11593 10.4206 6.56279 11.813 6.56279ZM32.8139 19.6884C33.905 19.6884 34.7828 20.5661 34.7828 21.6572V22.3135H42.6581C43.7492 22.3135 44.627 23.1912 44.627 24.2823C44.627 25.3734 43.7492 26.2511 42.6581 26.2511H22.9698C21.8787 26.2511 21.0009 25.3734 21.0009 24.2823C21.0009 23.1912 21.8787 22.3135 22.9698 22.3135H30.8451V21.6572C30.8451 20.5661 31.7229 19.6884 32.8139 19.6884ZM23.626 38.0642V28.8763H42.0018V38.0642C42.0018 40.2381 40.2381 42.0018 38.0642 42.0018H27.5637C25.3898 42.0018 23.626 40.2381 23.626 38.0642ZM3.93767 26.2511H10.5005H11.813H14.4381C16.6121 26.2511 18.3758 28.0149 18.3758 30.1888C18.3758 32.3627 16.6121 34.1265 14.4381 34.1265H13.1256C13.1256 35.5785 11.9525 36.7516 10.5005 36.7516H5.25023C3.79821 36.7516 2.62511 35.5785 2.62511 34.1265V27.5637C2.62511 26.8418 3.21577 26.2511 3.93767 26.2511ZM14.4381 31.5014C15.16 31.5014 15.7507 30.9107 15.7507 30.1888C15.7507 29.4669 15.16 28.8763 14.4381 28.8763H13.1256V31.5014H14.4381ZM1.96884 38.0642H16.407C17.498 38.0642 18.3758 38.9419 18.3758 40.033C18.3758 41.1241 17.498 42.0018 16.407 42.0018H1.96884C0.877773 42.0018 0 41.1241 0 40.033C0 38.9419 0.877773 38.0642 1.96884 38.0642Z" fill="#DB2777"/>
</g>
<defs>
<clipPath id="clip0_119_576">
<rect width="47.2521" height="42.0018" fill="white"/>
</clipPath>
</defs>
</svg>
