<svg width="207" height="36" viewBox="0 0 207 36" fill="none" xmlns="http://www.w3.org/2000/svg">
<path d="M96.6617 7.9311H99.2371L105.293 22.7222H105.502L111.557 7.9311H114.133V25.7501H112.114V12.2118H111.94L106.372 25.7501H104.423L98.8542 12.2118H98.6802V25.7501H96.6617V7.9311ZM122.909 26.0285C121.621 26.0285 120.51 25.7443 119.576 25.1758C118.648 24.6016 117.932 23.8011 117.427 22.7744C116.929 21.742 116.679 20.5413 116.679 19.1724C116.679 17.8035 116.929 16.597 117.427 15.5529C117.932 14.503 118.634 13.6851 119.533 13.0993C120.438 12.5076 121.493 12.2118 122.7 12.2118C123.396 12.2118 124.083 12.3278 124.762 12.5599C125.441 12.7919 126.058 13.1689 126.615 13.6909C127.172 14.2072 127.616 14.8916 127.946 15.7443C128.277 16.597 128.442 17.6468 128.442 18.8939V19.764H118.141V17.9891H126.354C126.354 17.235 126.203 16.5622 125.902 15.9705C125.606 15.3789 125.183 14.9119 124.632 14.5697C124.086 14.2275 123.442 14.0564 122.7 14.0564C121.882 14.0564 121.174 14.2594 120.577 14.6654C119.985 15.0656 119.53 15.5877 119.211 16.2315C118.892 16.8754 118.732 17.5656 118.732 18.3023V19.4856C118.732 20.4949 118.906 21.3504 119.255 22.0523C119.608 22.7483 120.098 23.2791 120.725 23.6445C121.351 24.0041 122.079 24.1839 122.909 24.1839C123.448 24.1839 123.935 24.1085 124.37 23.9577C124.811 23.8011 125.191 23.5691 125.51 23.2617C125.829 22.9484 126.076 22.5598 126.25 22.0958L128.234 22.6526C128.025 23.3255 127.674 23.9171 127.181 24.4276C126.688 24.9322 126.079 25.3266 125.354 25.6109C124.629 25.8893 123.814 26.0285 122.909 26.0285ZM130.691 12.3858H132.744V26.7245C132.744 27.5482 132.602 28.2617 132.318 28.8649C132.04 29.4681 131.616 29.9351 131.048 30.2657C130.485 30.5963 129.774 30.7616 128.916 30.7616C128.846 30.7616 128.777 30.7616 128.707 30.7616C128.638 30.7616 128.568 30.7616 128.498 30.7616V28.8475C128.568 28.8475 128.632 28.8475 128.69 28.8475C128.748 28.8475 128.812 28.8475 128.881 28.8475C129.508 28.8475 129.966 28.6619 130.256 28.2907C130.546 27.9252 130.691 27.4032 130.691 26.7245V12.3858ZM131.7 10.1585C131.3 10.1585 130.955 10.0222 130.665 9.74954C130.381 9.47692 130.238 9.14919 130.238 8.76636C130.238 8.38353 130.381 8.05581 130.665 7.78319C130.955 7.51057 131.3 7.37426 131.7 7.37426C132.1 7.37426 132.443 7.51057 132.727 7.78319C133.017 8.05581 133.162 8.38353 133.162 8.76636C133.162 9.14919 133.017 9.47692 132.727 9.74954C132.443 10.0222 132.1 10.1585 131.7 10.1585ZM139.563 26.0633C138.716 26.0633 137.947 25.9038 137.257 25.5847C136.567 25.2599 136.019 24.793 135.613 24.1839C135.207 23.5691 135.004 22.8266 135.004 21.9566C135.004 21.1909 135.154 20.5703 135.456 20.0946C135.758 19.6132 136.161 19.2362 136.665 18.9635C137.17 18.6909 137.727 18.4879 138.336 18.3545C138.951 18.2153 139.569 18.1051 140.189 18.0239C141.001 17.9195 141.66 17.8412 142.164 17.789C142.675 17.7309 143.046 17.6352 143.278 17.5018C143.516 17.3684 143.635 17.1364 143.635 16.8058V16.7362C143.635 15.8777 143.4 15.2107 142.93 14.735C142.466 14.2594 141.761 14.0216 140.816 14.0216C139.835 14.0216 139.067 14.2362 138.51 14.6654C137.953 15.0946 137.562 15.5529 137.335 16.0401L135.386 15.3441C135.734 14.532 136.199 13.8998 136.779 13.4473C137.364 12.9891 138.002 12.6701 138.693 12.4902C139.389 12.3046 140.073 12.2118 140.746 12.2118C141.175 12.2118 141.668 12.264 142.225 12.3684C142.788 12.467 143.33 12.673 143.852 12.9862C144.38 13.2994 144.818 13.7721 145.166 14.4044C145.514 15.0366 145.688 15.8835 145.688 16.945V25.7501H143.635V23.9403H143.53C143.391 24.2303 143.159 24.5407 142.834 24.8713C142.509 25.2019 142.077 25.4832 141.538 25.7153C140.998 25.9473 140.34 26.0633 139.563 26.0633ZM139.876 24.2187C140.688 24.2187 141.373 24.0592 141.929 23.7402C142.492 23.4212 142.915 23.0094 143.2 22.5047C143.49 22.0001 143.635 21.4693 143.635 20.9125V19.0331C143.548 19.1376 143.356 19.2333 143.06 19.3203C142.77 19.4015 142.434 19.474 142.051 19.5378C141.674 19.5958 141.306 19.648 140.946 19.6944C140.592 19.735 140.305 19.7698 140.085 19.7988C139.551 19.8684 139.052 19.9815 138.588 20.1381C138.13 20.2889 137.759 20.5181 137.475 20.8255C137.196 21.1271 137.057 21.5389 137.057 22.061C137.057 22.7744 137.321 23.3139 137.849 23.6793C138.382 24.0389 139.058 24.2187 139.876 24.2187ZM154.855 25.7501V7.9311H157.013V23.8359H165.296V25.7501H154.855ZM167.484 25.7501V12.3858H169.537V25.7501H167.484ZM168.528 10.1585C168.127 10.1585 167.782 10.0222 167.492 9.74954C167.208 9.47692 167.066 9.14919 167.066 8.76636C167.066 8.38353 167.208 8.05581 167.492 7.78319C167.782 7.51057 168.127 7.37426 168.528 7.37426C168.928 7.37426 169.27 7.51057 169.554 7.78319C169.844 8.05581 169.989 8.38353 169.989 8.76636C169.989 9.14919 169.844 9.47692 169.554 9.74954C169.27 10.0222 168.928 10.1585 168.528 10.1585ZM172.423 30.7616V12.3858H174.406V14.5088H174.65C174.801 14.2768 175.01 13.981 175.277 13.6213C175.549 13.2559 175.938 12.9311 176.442 12.6469C176.953 12.3568 177.643 12.2118 178.513 12.2118C179.638 12.2118 180.63 12.4931 181.489 13.0558C182.347 13.6184 183.017 14.416 183.499 15.4485C183.98 16.481 184.221 17.699 184.221 19.1028C184.221 20.5181 183.98 21.7449 183.499 22.7831C183.017 23.8156 182.35 24.6161 181.498 25.1845C180.645 25.7472 179.662 26.0285 178.548 26.0285C177.69 26.0285 177.002 25.8864 176.486 25.6021C175.97 25.3121 175.572 24.9844 175.294 24.619C175.016 24.2477 174.801 23.9403 174.65 23.6967H174.476V30.7616H172.423ZM174.441 19.068C174.441 20.0772 174.589 20.9676 174.885 21.7391C175.181 22.5047 175.613 23.1051 176.181 23.5401C176.75 23.9693 177.446 24.1839 178.27 24.1839C179.128 24.1839 179.844 23.9577 180.419 23.5053C180.999 23.0471 181.434 22.4322 181.724 21.6607C182.02 20.8835 182.167 20.0192 182.167 19.068C182.167 18.1283 182.022 17.2814 181.732 16.5274C181.448 15.7675 181.016 15.1672 180.436 14.7263C179.862 14.2797 179.14 14.0564 178.27 14.0564C177.434 14.0564 176.732 14.2681 176.164 14.6915C175.596 15.1091 175.166 15.695 174.876 16.449C174.586 17.1973 174.441 18.0703 174.441 19.068ZM190.411 26.0633C189.564 26.0633 188.795 25.9038 188.105 25.5847C187.415 25.2599 186.867 24.793 186.461 24.1839C186.055 23.5691 185.852 22.8266 185.852 21.9566C185.852 21.1909 186.002 20.5703 186.304 20.0946C186.606 19.6132 187.009 19.2362 187.513 18.9635C188.018 18.6909 188.575 18.4879 189.184 18.3545C189.799 18.2153 190.417 18.1051 191.037 18.0239C191.849 17.9195 192.508 17.8412 193.012 17.789C193.523 17.7309 193.894 17.6352 194.126 17.5018C194.364 17.3684 194.483 17.1364 194.483 16.8058V16.7362C194.483 15.8777 194.248 15.2107 193.778 14.735C193.314 14.2594 192.609 14.0216 191.664 14.0216C190.683 14.0216 189.915 14.2362 189.358 14.6654C188.801 15.0946 188.41 15.5529 188.183 16.0401L186.234 15.3441C186.582 14.532 187.046 13.8998 187.626 13.4473C188.212 12.9891 188.85 12.6701 189.541 12.4902C190.237 12.3046 190.921 12.2118 191.594 12.2118C192.023 12.2118 192.516 12.264 193.073 12.3684C193.636 12.467 194.178 12.673 194.7 12.9862C195.228 13.2994 195.666 13.7721 196.014 14.4044C196.362 15.0366 196.536 15.8835 196.536 16.945V25.7501H194.483V23.9403H194.378C194.239 24.2303 194.007 24.5407 193.682 24.8713C193.357 25.2019 192.925 25.4832 192.386 25.7153C191.846 25.9473 191.188 26.0633 190.411 26.0633ZM190.724 24.2187C191.536 24.2187 192.22 24.0592 192.777 23.7402C193.34 23.4212 193.763 23.0094 194.048 22.5047C194.338 22.0001 194.483 21.4693 194.483 20.9125V19.0331C194.396 19.1376 194.204 19.2333 193.908 19.3203C193.618 19.4015 193.282 19.474 192.899 19.5378C192.522 19.5958 192.154 19.648 191.794 19.6944C191.44 19.735 191.153 19.7698 190.933 19.7988C190.399 19.8684 189.9 19.9815 189.436 20.1381C188.978 20.2889 188.607 20.5181 188.323 20.8255C188.044 21.1271 187.905 21.5389 187.905 22.061C187.905 22.7744 188.169 23.3139 188.697 23.6793C189.23 24.0389 189.906 24.2187 190.724 24.2187ZM205.221 12.3858V14.126H198.295V12.3858H205.221ZM200.314 9.184H202.367V21.9218C202.367 22.5018 202.451 22.9368 202.619 23.2269C202.793 23.5111 203.014 23.7025 203.281 23.8011C203.553 23.8939 203.84 23.9403 204.142 23.9403C204.368 23.9403 204.554 23.9287 204.699 23.9055C204.844 23.8765 204.96 23.8533 205.047 23.8359L205.464 25.6805C205.325 25.7327 205.131 25.7849 204.881 25.8371C204.632 25.8951 204.316 25.9241 203.933 25.9241C203.353 25.9241 202.785 25.7994 202.228 25.5499C201.677 25.3005 201.218 24.9206 200.853 24.4102C200.493 23.8997 200.314 23.2559 200.314 22.4786V9.184Z" fill="black"/>
<g clip-path="url(#clip0_119_572)">
<path d="M4.37519 10.938C4.37519 6.10474 8.29235 2.18758 13.1256 2.18758H30.6263C35.4596 2.18758 39.3767 6.10474 39.3767 10.938V13.2349C36.8815 13.7408 35.0015 15.9489 35.0015 18.5945V21.8759H8.75038V18.5945C8.75038 15.9489 6.87042 13.7408 4.37519 13.2349V10.938ZM37.1891 18.5945C37.1891 17.1658 38.1052 15.9489 39.3767 15.4977C39.7185 15.3747 40.0877 15.3132 40.4705 15.3132C42.2821 15.3132 43.7519 16.7829 43.7519 18.5945V30.6263C43.7519 31.8363 42.7743 32.8139 41.5643 32.8139H39.3767C38.1667 32.8139 37.1891 31.8363 37.1891 30.6263H6.56279C6.56279 31.8363 5.58521 32.8139 4.37519 32.8139H2.1876C0.977582 32.8139 0 31.8363 0 30.6263V18.5945C0 16.7829 1.46979 15.3132 3.28139 15.3132C3.66422 15.3132 4.03338 15.3815 4.37519 15.4977C5.64673 15.9489 6.56279 17.1658 6.56279 18.5945V21.8759V24.0635H8.75038H35.0015H37.1891V21.8759V18.5945Z" fill="#DB2777"/>
</g>
<defs>
<clipPath id="clip0_119_572">
<rect width="43.7519" height="35.0015" fill="white"/>
</clipPath>
</defs>
</svg>
