<svg width="241" height="43" viewBox="0 0 241 43" fill="none" xmlns="http://www.w3.org/2000/svg">
<path d="M97.0015 31.0004V13.1814H103.022C104.42 13.1814 105.563 13.4337 106.45 13.9383C107.344 14.4372 108.005 15.1129 108.434 15.9656C108.863 16.8183 109.078 17.7695 109.078 18.8194C109.078 19.8693 108.863 20.8235 108.434 21.6819C108.011 22.5404 107.355 23.2249 106.468 23.7353C105.58 24.2399 104.443 24.4923 103.057 24.4923H98.7416V22.5781H102.988C103.945 22.5781 104.713 22.4128 105.293 22.0822C105.873 21.7515 106.294 21.3049 106.555 20.7423C106.822 20.1738 106.955 19.5329 106.955 18.8194C106.955 18.106 106.822 17.4679 106.555 16.9053C106.294 16.3426 105.87 15.9018 105.285 15.5828C104.699 15.2579 103.921 15.0955 102.953 15.0955H99.1593V31.0004H97.0015ZM115.333 31.3136C114.486 31.3136 113.718 31.1541 113.028 30.835C112.337 30.5102 111.789 30.0433 111.383 29.4342C110.977 28.8194 110.774 28.0769 110.774 27.2069C110.774 26.4412 110.925 25.8206 111.226 25.3449C111.528 24.8635 111.931 24.4865 112.436 24.2138C112.941 23.9412 113.497 23.7382 114.106 23.6048C114.721 23.4656 115.339 23.3554 115.96 23.2742C116.772 23.1698 117.43 23.0914 117.935 23.0392C118.445 22.9812 118.816 22.8855 119.048 22.7521C119.286 22.6187 119.405 22.3867 119.405 22.0561V21.9865C119.405 21.128 119.17 20.4609 118.7 19.9853C118.236 19.5097 117.532 19.2719 116.586 19.2719C115.606 19.2719 114.837 19.4865 114.28 19.9157C113.724 20.3449 113.332 20.8032 113.106 21.2904L111.157 20.5944C111.505 19.7823 111.969 19.15 112.549 18.6976C113.135 18.2394 113.773 17.9204 114.463 17.7405C115.159 17.5549 115.844 17.4621 116.516 17.4621C116.946 17.4621 117.439 17.5143 117.996 17.6187C118.558 17.7173 119.101 17.9233 119.623 18.2365C120.15 18.5497 120.588 19.0224 120.936 19.6547C121.284 20.2869 121.458 21.1338 121.458 22.1953V31.0004H119.405V29.1906H119.301C119.161 29.4806 118.929 29.791 118.605 30.1216C118.28 30.4522 117.848 30.7335 117.308 30.9655C116.769 31.1976 116.11 31.3136 115.333 31.3136ZM115.646 29.469C116.458 29.469 117.143 29.3095 117.7 28.9905C118.262 28.6715 118.686 28.2596 118.97 27.755C119.26 27.2504 119.405 26.7196 119.405 26.1628V24.2834C119.318 24.3878 119.127 24.4836 118.831 24.5706C118.541 24.6518 118.204 24.7243 117.822 24.7881C117.445 24.8461 117.076 24.8983 116.717 24.9447C116.363 24.9853 116.076 25.0201 115.855 25.0491C115.322 25.1187 114.823 25.2318 114.359 25.3884C113.9 25.5392 113.529 25.7684 113.245 26.0758C112.967 26.3774 112.827 26.7892 112.827 27.3113C112.827 28.0247 113.091 28.5642 113.619 28.9296C114.153 29.2892 114.829 29.469 115.646 29.469ZM124.331 31.0004V17.6361H126.315V19.6547H126.454C126.698 18.9934 127.139 18.4569 127.777 18.0451C128.415 17.6332 129.134 17.4273 129.934 17.4273C130.085 17.4273 130.274 17.4302 130.5 17.436C130.726 17.4418 130.897 17.4505 131.013 17.4621V19.5503C130.944 19.5329 130.784 19.5068 130.535 19.472C130.291 19.4314 130.033 19.4111 129.76 19.4111C129.111 19.4111 128.531 19.5474 128.02 19.82C127.516 20.0868 127.115 20.458 126.82 20.9337C126.53 21.4035 126.385 21.9401 126.385 22.5433V31.0004H124.331ZM134.486 26.128L134.452 23.5874H134.869L140.716 17.6361H143.257L137.027 23.9354H136.853L134.486 26.128ZM132.572 31.0004V13.1814H134.626V31.0004H132.572ZM141.064 31.0004L135.844 24.3878L137.305 22.9609L143.674 31.0004H141.064ZM145.025 31.0004V17.6361H147.078V31.0004H145.025ZM146.069 15.4088C145.668 15.4088 145.323 15.2724 145.033 14.9998C144.749 14.7272 144.607 14.3995 144.607 14.0167C144.607 13.6338 144.749 13.3061 145.033 13.0335C145.323 12.7609 145.668 12.6245 146.069 12.6245C146.469 12.6245 146.811 12.7609 147.095 13.0335C147.385 13.3061 147.53 13.6338 147.53 14.0167C147.53 14.3995 147.385 14.7272 147.095 14.9998C146.811 15.2724 146.469 15.4088 146.069 15.4088ZM149.964 31.0004V17.6361H151.947V19.6547H152.087C152.33 18.9934 152.771 18.4569 153.409 18.0451C154.047 17.6332 154.766 17.4273 155.567 17.4273C155.718 17.4273 155.906 17.4302 156.132 17.436C156.359 17.4418 156.53 17.4505 156.646 17.4621V19.5503C156.576 19.5329 156.417 19.5068 156.167 19.472C155.924 19.4314 155.666 19.4111 155.393 19.4111C154.743 19.4111 154.163 19.5474 153.653 19.82C153.148 20.0868 152.748 20.458 152.452 20.9337C152.162 21.4035 152.017 21.9401 152.017 22.5433V31.0004H149.964ZM162.137 31.3136C161.291 31.3136 160.522 31.1541 159.832 30.835C159.142 30.5102 158.593 30.0433 158.187 29.4342C157.781 28.8194 157.578 28.0769 157.578 27.2069C157.578 26.4412 157.729 25.8206 158.031 25.3449C158.332 24.8635 158.736 24.4865 159.24 24.2138C159.745 23.9412 160.302 23.7382 160.911 23.6048C161.526 23.4656 162.143 23.3554 162.764 23.2742C163.576 23.1698 164.234 23.0914 164.739 23.0392C165.249 22.9812 165.621 22.8855 165.853 22.7521C166.09 22.6187 166.209 22.3867 166.209 22.0561V21.9865C166.209 21.128 165.974 20.4609 165.505 19.9853C165.041 19.5097 164.336 19.2719 163.39 19.2719C162.41 19.2719 161.642 19.4865 161.085 19.9157C160.528 20.3449 160.136 20.8032 159.91 21.2904L157.961 20.5944C158.309 19.7823 158.773 19.15 159.353 18.6976C159.939 18.2394 160.577 17.9204 161.267 17.7405C161.963 17.5549 162.648 17.4621 163.321 17.4621C163.75 17.4621 164.243 17.5143 164.8 17.6187C165.363 17.7173 165.905 17.9233 166.427 18.2365C166.955 18.5497 167.393 19.0224 167.741 19.6547C168.089 20.2869 168.263 21.1338 168.263 22.1953V31.0004H166.209V29.1906H166.105C165.966 29.4806 165.734 29.791 165.409 30.1216C165.084 30.4522 164.652 30.7335 164.113 30.9655C163.573 31.1976 162.915 31.3136 162.137 31.3136ZM162.451 29.469C163.263 29.469 163.947 29.3095 164.504 28.9905C165.067 28.6715 165.49 28.2596 165.774 27.755C166.064 27.2504 166.209 26.7196 166.209 26.1628V24.2834C166.122 24.3878 165.931 24.4836 165.635 24.5706C165.345 24.6518 165.009 24.7243 164.626 24.7881C164.249 24.8461 163.881 24.8983 163.521 24.9447C163.167 24.9853 162.88 25.0201 162.66 25.0491C162.126 25.1187 161.627 25.2318 161.163 25.3884C160.705 25.5392 160.334 25.7684 160.049 26.0758C159.771 26.3774 159.632 26.7892 159.632 27.3113C159.632 28.0247 159.896 28.5642 160.423 28.9296C160.957 29.2892 161.633 29.469 162.451 29.469ZM173.189 22.9609V31.0004H171.136V17.6361H173.119V19.7243H173.293C173.607 19.0456 174.082 18.5004 174.72 18.0886C175.358 17.6709 176.182 17.4621 177.191 17.4621C178.096 17.4621 178.888 17.6477 179.566 18.019C180.245 18.3844 180.773 18.9412 181.15 19.6895C181.527 20.4319 181.716 21.3716 181.716 22.5085V31.0004H179.662V22.6477C179.662 21.5978 179.39 20.78 178.844 20.1941C178.299 19.6025 177.551 19.3067 176.6 19.3067C175.944 19.3067 175.358 19.4488 174.842 19.733C174.332 20.0172 173.928 20.4319 173.633 20.9772C173.337 21.5224 173.189 22.1837 173.189 22.9609ZM190.887 31.0004V13.1814H193.045V29.0862H201.328V31.0004H190.887ZM211.938 25.5363V17.6361H213.991V31.0004H211.938V28.7382H211.798C211.485 29.4168 210.998 29.994 210.337 30.4696C209.675 30.9394 208.84 31.1744 207.831 31.1744C206.996 31.1744 206.253 30.9917 205.604 30.6262C204.954 30.255 204.443 29.6982 204.072 28.9557C203.701 28.2074 203.515 27.2649 203.515 26.128V17.6361H205.569V25.9888C205.569 26.9632 205.841 27.7405 206.387 28.3205C206.938 28.9006 207.639 29.1906 208.492 29.1906C209.003 29.1906 209.522 29.0601 210.05 28.7991C210.583 28.5381 211.03 28.1378 211.389 27.5984C211.755 27.0589 211.938 26.3716 211.938 25.5363ZM220.809 31.3136C219.963 31.3136 219.194 31.1541 218.504 30.835C217.814 30.5102 217.265 30.0433 216.859 29.4342C216.453 28.8194 216.25 28.0769 216.25 27.2069C216.25 26.4412 216.401 25.8206 216.703 25.3449C217.004 24.8635 217.408 24.4865 217.912 24.2138C218.417 23.9412 218.974 23.7382 219.583 23.6048C220.198 23.4656 220.815 23.3554 221.436 23.2742C222.248 23.1698 222.906 23.0914 223.411 23.0392C223.921 22.9812 224.293 22.8855 224.525 22.7521C224.762 22.6187 224.881 22.3867 224.881 22.0561V21.9865C224.881 21.128 224.646 20.4609 224.177 19.9853C223.713 19.5097 223.008 19.2719 222.062 19.2719C221.082 19.2719 220.314 19.4865 219.757 19.9157C219.2 20.3449 218.808 20.8032 218.582 21.2904L216.633 20.5944C216.981 19.7823 217.445 19.15 218.025 18.6976C218.611 18.2394 219.249 17.9204 219.939 17.7405C220.635 17.5549 221.32 17.4621 221.993 17.4621C222.422 17.4621 222.915 17.5143 223.472 17.6187C224.035 17.7173 224.577 17.9233 225.099 18.2365C225.627 18.5497 226.065 19.0224 226.413 19.6547C226.761 20.2869 226.935 21.1338 226.935 22.1953V31.0004H224.881V29.1906H224.777C224.638 29.4806 224.406 29.791 224.081 30.1216C223.756 30.4522 223.324 30.7335 222.785 30.9655C222.245 31.1976 221.587 31.3136 220.809 31.3136ZM221.123 29.469C221.935 29.469 222.619 29.3095 223.176 28.9905C223.739 28.6715 224.162 28.2596 224.446 27.755C224.736 27.2504 224.881 26.7196 224.881 26.1628V24.2834C224.794 24.3878 224.603 24.4836 224.307 24.5706C224.017 24.6518 223.681 24.7243 223.298 24.7881C222.921 24.8461 222.553 24.8983 222.193 24.9447C221.839 24.9853 221.552 25.0201 221.332 25.0491C220.798 25.1187 220.299 25.2318 219.835 25.3884C219.377 25.5392 219.006 25.7684 218.721 26.0758C218.443 26.3774 218.304 26.7892 218.304 27.3113C218.304 28.0247 218.568 28.5642 219.095 28.9296C219.629 29.2892 220.305 29.469 221.123 29.469ZM239.274 20.6292L237.429 21.1512C237.313 20.8438 237.142 20.5451 236.916 20.255C236.696 19.9592 236.394 19.7156 236.011 19.5242C235.628 19.3328 235.138 19.2371 234.541 19.2371C233.723 19.2371 233.041 19.4256 232.496 19.8026C231.957 20.1738 231.687 20.6466 231.687 21.2208C231.687 21.7312 231.872 22.1344 232.244 22.4302C232.615 22.726 233.195 22.9725 233.984 23.1698L235.968 23.657C237.162 23.947 238.053 24.3907 238.639 24.9882C239.225 25.5798 239.517 26.3426 239.517 27.2765C239.517 28.0421 239.297 28.7266 238.856 29.3298C238.421 29.9331 237.812 30.4087 237.029 30.7567C236.246 31.1048 235.335 31.2788 234.297 31.2788C232.934 31.2788 231.806 30.9829 230.913 30.3913C230.019 29.7997 229.454 28.9354 229.216 27.7985L231.165 27.3113C231.35 28.0305 231.701 28.57 232.218 28.9296C232.74 29.2892 233.421 29.469 234.262 29.469C235.219 29.469 235.979 29.266 236.542 28.86C237.11 28.4482 237.395 27.9551 237.395 27.3809C237.395 26.9168 237.232 26.5282 236.907 26.215C236.582 25.896 236.084 25.6581 235.411 25.5015L233.183 24.9795C231.959 24.6895 231.06 24.2399 230.486 23.6309C229.918 23.016 229.634 22.2475 229.634 21.3252C229.634 20.5712 229.845 19.9041 230.269 19.3241C230.698 18.744 231.281 18.2887 232.017 17.9581C232.76 17.6274 233.601 17.4621 234.541 17.4621C235.863 17.4621 236.901 17.7521 237.656 18.3322C238.415 18.9122 238.955 19.6779 239.274 20.6292Z" fill="black"/>
<g clip-path="url(#clip0_119_553)">
<path d="M5.59007 2.62521C2.69424 2.62521 0.339844 4.97961 0.339844 7.87544V34.1266C0.339844 37.0224 2.69424 39.3768 5.59007 39.3768H31.8412C34.737 39.3768 37.0914 37.0224 37.0914 34.1266V7.87544C37.0914 4.97961 34.737 2.62521 31.8412 2.62521H5.59007ZM16.0905 21.001H20.0282C21.4802 21.001 22.6533 19.8279 22.6533 18.3759C22.6533 16.9239 21.4802 15.7508 20.0282 15.7508H16.0905V21.001ZM20.0282 26.2512H16.0905V28.8764C16.0905 30.3284 14.9174 31.5015 13.4654 31.5015C12.0134 31.5015 10.8403 30.3284 10.8403 28.8764V23.6261V13.7819C10.8403 11.969 12.3087 10.5006 14.1217 10.5006H20.0282C24.3761 10.5006 27.9035 14.028 27.9035 18.3759C27.9035 22.7237 24.3761 26.2512 20.0282 26.2512Z" fill="#DB2777"/>
</g>
<defs>
<clipPath id="clip0_119_553">
<rect width="36.7516" height="42.0018" fill="white" transform="translate(0.339844)"/>
</clipPath>
</defs>
</svg>
